<?xml version="1.0" encoding="utf-8"?>
<!-- Generator: Adobe Illustrator 28.2.0, SVG Export Plug-In . SVG Version: 6.00 Build 0)  -->
<svg version="1.1" id="Layer_1" xmlns="http://www.w3.org/2000/svg" xmlns:xlink="http://www.w3.org/1999/xlink" x="0px" y="0px"
	 viewBox="0 0 512 512" style="enable-background:new 0 0 512 512;" xml:space="preserve">
<path d="M368,64.1H144c-44.1,0-80,35.9-80,80v16c0,44.1,35.9,80,80,80H368c44.1,0,80-35.9,80-80v-16C447.9,99.9,412.1,64.1,368,64.1
	z M416,160c0,26.5-21.5,48-48,48H144c-26.5,0-48-21.5-48-48v-16c0-26.5,21.5-48,48-48H368c26.5,0,48,21.5,48,48V160z M384,160
	c0,8.8-7.1,16-16,16H144c-8.8,0-16-7.2-16-16s7.1-16,16-16H368C376.8,144,384,151.2,384,160z M272,288v144c0,8.8-7.1,16-16,16
	s-16-7.2-16-16V288c0-8.8,7.1-16,16-16S272,279.2,272,288z M208,288v96c0,35.3-28.7,64-64,64s-64-28.7-64-64
	c0-27.8,17.9-54.3,42.7-63.1c8.3-2.9,17.5,1.4,20.4,9.8c2.9,8.3-1.4,17.5-9.8,20.4c-11.9,4.2-21.3,18.7-21.3,32.9
	c0,17.6,14.3,32,32,32s32-14.3,32-32v-96c0-8.8,7.1-16,16-16S208,279.2,208,288z M431.9,384c0,35.3-28.7,64-64,64s-64-28.7-64-64
	v-96c0-8.8,7.1-16,16-16c8.8,0,16,7.2,16,16v96c0,17.6,14.3,32,32,32s32-14.3,32-32c0-14.2-9.4-28.7-21.3-32.9
	c-8.3-2.9-12.7-12.1-9.8-20.4c3-8.3,12.1-12.7,20.4-9.8C414,329.6,431.9,356.1,431.9,384z"/>
</svg>
