<?xml version="1.0" encoding="utf-8"?>
<!-- Generator: Adobe Illustrator 28.2.0, SVG Export Plug-In . SVG Version: 6.00 Build 0)  -->
<svg version="1.1" id="Layer_1" xmlns="http://www.w3.org/2000/svg" xmlns:xlink="http://www.w3.org/1999/xlink" x="0px" y="0px"
	 viewBox="0 0 512 512" style="enable-background:new 0 0 512 512;" xml:space="preserve">
<path d="M448,80c0,8.8-7.2,16-16,16h-64c-8.8,0-16,7.2-16,16v64c0,8.8-7.2,16-16,16h-48c-8.8,0-16,7.2-16,16v48c0,8.8-7.2,16-16,16
	h-48c-8.8,0-16,7.2-16,16v48c0,8.8-7.2,16-16,16h-64c-8.8,0-16,7.2-16,16v64c0,8.8-7.2,16-16,16s-16-7.2-16-16v-64
	c0-26.5,21.5-48,48-48h48v-32c0-26.5,21.5-48,48-48h32v-32c0-26.5,21.5-48,48-48h32v-48c0-26.5,21.5-48,48-48h64
	C440.8,64,448,71.2,448,80z"/>
</svg>
