<?xml version="1.0" encoding="utf-8"?>
<!-- Generator: Adobe Illustrator 28.2.0, SVG Export Plug-In . SVG Version: 6.00 Build 0)  -->
<svg version="1.1" id="Layer_1" xmlns="http://www.w3.org/2000/svg" xmlns:xlink="http://www.w3.org/1999/xlink" x="0px" y="0px"
	 viewBox="0 0 512 512" style="enable-background:new 0 0 512 512;" xml:space="preserve">
<path d="M256,288c51.7,0,96-46.6,96-96.4c0-45.1-40.1-81.7-69.3-108.4c-5.7-5.2-11-10-15.3-14.4c-3.1-3.1-7.1-5.1-11.9-4.7
	c-4.4,0.2-8.6,2.2-11.5,5.5c-14.8,17.1-20.2,39.7-24.5,57.8c-0.3,1.2-0.6,2.4-0.9,3.7c-0.8-5.6-4.5-10.4-9.8-12.6
	c-6-2.4-13-1-17.5,3.7c-9.4,9.7-31.2,35.8-31.2,69.3C160,241.4,204.3,288,256,288z M267.3,251.3c-2,2-4.3,3.7-11.3,4.2
	c-7,0.5-9.3-2.2-11.3-4.2c-6.2-6.2-6.2-16.4,0-22.6l11.3-11.3l11.3,11.3C273.5,234.9,273.5,245.1,267.3,251.3z M198.3,166.9
	c5.3,5.6,12.4,9.1,21.5,9.1c21,0,26.2-21.9,30.8-41.2c2.3-9.8,4.8-20.3,8.8-29.7c24.9,22.7,60.7,55.4,60.7,86.4
	c0,16.4-6.2,31.4-16.4,42.7c-1.2-10.3-5.8-20.3-13.7-28.2l-22.6-22.6c-6.3-6.3-16.4-6.3-22.6,0l-22.6,22.6
	c-7.9,7.9-12.4,17.9-13.7,28.2c-10.2-11.3-16.4-26.3-16.4-42.7C192,182.6,194.7,174.1,198.3,166.9L198.3,166.9z M416,354.7V336
	c0-35.3-28.7-64-64-64c-8.8,0-16,7.1-16,16c0,8.8,7.1,16,16,16c17.6,0,32,14.3,32,32v16H128v-16c0-17.6,14.3-32,32-32
	c8.8,0,16-7.1,16-16c0-8.8-7.1-16-16-16c-35.3,0-64,28.7-64,64v18.7c-18.6,6.6-32,24.4-32,45.2c0,26.5,21.5,48,48,48H400
	c26.5,0,48-21.5,48-48C447.9,379.1,434.6,361.3,416,354.7z M176,416h-64c-8.8,0-16-7.2-16-16s7.2-16,16-16h64V416z M240,416h-32v-32
	h32V416z M304,416h-32v-32h32V416z M400,416h-64v-32h64c8.8,0,16,7.2,16,16S408.8,416,400,416z"/>
</svg>
