<?xml version="1.0" encoding="utf-8"?>
<!-- Generator: Adobe Illustrator 28.2.0, SVG Export Plug-In . SVG Version: 6.00 Build 0)  -->
<svg version="1.1" id="Layer_1" xmlns="http://www.w3.org/2000/svg" xmlns:xlink="http://www.w3.org/1999/xlink" x="0px" y="0px"
	 viewBox="0 0 512 512" style="enable-background:new 0 0 512 512;" xml:space="preserve">
<path d="M446.3,167.3c-4,7.9-13.6,11-21.5,7c0,0,0,0,0,0L284,102.4c-17.8-8.6-38.5-8.6-56.3,0.1L87.2,174.2c-7.9,4-17.5,0.9-21.5-7
	c-4-7.9-0.9-17.5,7-21.5l140.7-71.7c26.8-13.1,58.1-13.2,85-0.1l140.9,71.9C447.2,149.8,450.3,159.4,446.3,167.3z M417.3,273.9
	c9.7,16.9,14.7,36.1,14.8,55.6V352c0,22.9-12.2,44-32,55.4v8.6c0,17.7-14.3,32-32,32s-32-14.3-32-32H176c0,17.7-14.3,32-32,32
	s-32-14.3-32-32v-8.6C92.2,396,80,374.9,80,352v-22.5c0-19.5,5.1-38.7,14.8-55.6l32.9-57.6c14.3-24.9,40.8-40.3,69.5-40.3h117.8
	c28.7,0,55.2,15.4,69.5,40.3L417.3,273.9z M123.5,288h264.9l-31.9-55.8c-8.6-14.9-24.5-24.2-41.7-24.2H197.1
	c-17.2,0.1-33.1,9.3-41.6,24.2L123.5,288z M400,329.5c0-3.2-0.2-6.4-0.6-9.5H368v16c0,8.8-7.2,16-16,16s-16-7.2-16-16v-16H176v16
	c0,8.8-7.2,16-16,16c-8.8,0-16-7.2-16-16v-16h-31.4c-0.4,3.2-0.6,6.3-0.6,9.5V352c0,17.7,14.3,32,32,32h224c17.7,0,32-14.3,32-32
	V329.5z"/>
</svg>
