<?xml version="1.0" encoding="utf-8"?>
<!-- Generator: Adobe Illustrator 28.2.0, SVG Export Plug-In . SVG Version: 6.00 Build 0)  -->
<svg version="1.1" id="Layer_1" xmlns="http://www.w3.org/2000/svg" xmlns:xlink="http://www.w3.org/1999/xlink" x="0px" y="0px"
	 viewBox="0 0 512 512" style="enable-background:new 0 0 512 512;" xml:space="preserve">
<path d="M260.7,301.6c-3.5-3.1-9.1-2.3-11.5,1.7c-13.5,22.9-10.4,55.7-22.6,55.7c-5.7,0-4.8-9.9-7.5-16.1c-1.9-4.3-7.7-5-10.7-1.3
	c-11.5,14.1-22.5,39.1-12.3,63.4c10.8,26.1,35.3,44.4,63.5,42.8c33.7-2,60.4-29.9,60.4-64.1l0,0C320,349.9,282.5,321.1,260.7,301.6
	L260.7,301.6z M274.5,423c-9.9,11.6-27.7,11.6-37.6,0c-8.6-10-6.9-25.3,2.4-34.6l10.9-10.9c3-3,7.9-3,11,0l10.9,10.9l0,0
	C281.4,397.7,283.1,413,274.5,423z M431.9,415.9V147.8l13.5-26.8l1.2-3.3c3.2-13,0.4-26.5-7.9-37.1c-8.2-10.6-20.7-16.6-34.1-16.6
	H107.3c-13.4,0-25.8,6.1-34.1,16.6s-11.1,24.1-7.9,37.1l14.7,29.8v268.4c-8.8,0-16,7.2-16,16s7.2,16,16,16h80c8.8,0,16-7.2,16-16
	V294.4c0-19.9,12.3-38,30.8-44.8c33.8-12.7,64.6-12.7,98.4,0c18.4,6.9,30.8,24.9,30.8,44.8v137.6c0,8.8,7.2,16,16,16h80
	c8.8,0,16-7.2,16-16S440.8,415.9,431.9,415.9z M98.4,100.4c1.3-1.6,4.1-4.3,8.8-4.3h297.4c4.8,0,7.6,2.7,8.8,4.3
	c1.1,1.5,2.8,4.3,2.3,8.2l-9.8,19.4H105.9l-9.8-19.4C95.7,104.7,97.3,101.8,98.4,100.4L98.4,100.4z M316.4,219.6
	c-41-15.4-79.9-15.4-120.9,0c-30.8,11.5-51.5,41.6-51.5,74.8v121.6h-32V160h287.9v255.9h-32V294.4
	C367.9,261.2,347.2,231.1,316.4,219.6L316.4,219.6z"/>
</svg>
