<?xml version="1.0" encoding="utf-8"?>
<!-- Generator: Adobe Illustrator 28.2.0, SVG Export Plug-In . SVG Version: 6.00 Build 0)  -->
<svg version="1.1" id="Layer_1" xmlns="http://www.w3.org/2000/svg" xmlns:xlink="http://www.w3.org/1999/xlink" x="0px" y="0px"
	 viewBox="0 0 512 512" style="enable-background:new 0 0 512 512;" xml:space="preserve">
<path d="M256,320.2c-35.4,0-64.1-28.7-64.1-64.1S220.6,192,256,192s64.1,28.7,64.1,64.1S291.4,320.2,256,320.2z M256,224
	c-17.7,0-32,14.3-32,32c0,17.7,14.3,32,32,32c17.7,0,32-14.3,32-32C288.1,238.4,273.7,224,256,224z M256,448.4
	c-36.2-0.1-67.9-24.3-77.4-59.3c-43.1,10-86.2-16.8-96.2-59.9c-6.2-26.6,1.6-54.4,20.6-74c-30.8-31.7-30.1-82.5,1.6-113.3
	c19.7-19.1,47.8-26.8,74.5-20.5C191.9,79,236.8,55,279.2,67.8c25.8,7.8,45.9,27.9,53.7,53.7c43-10.3,86.3,16.2,96.6,59.2
	c6.4,26.7-1.3,54.8-20.5,74.5c30.8,31.8,30,82.5-1.7,113.3c-19.5,19-47.4,26.7-73.9,20.5C323.9,424,292.2,448.3,256,448.4z
	 M208.9,338l-1,31.6c0.4,26.6,22.2,47.8,48.8,47.4c26.6-0.4,47.8-22.2,47.4-48.8c0,0.7-0.9-30.2-0.9-30.2l24.9,14.6
	c23,12.9,52.2,4.8,65.1-18.2c12.9-23,4.8-52.2-18.2-65.1l-25.9-14.1l25.9-14.1c23.3-12.4,32-41.4,19.6-64.7
	c-12.4-23.3-41.4-32-64.7-19.6c-0.6,0.3-1.1,0.6-1.7,0.9l-24.1,14v-27.9c0-26.5-21.5-48.1-48.1-48.1c-26.5,0-48.1,21.5-48.1,48.1
	v27.9l-24-14c-22.7-13.4-52-5.8-65.4,17s-5.8,52,17,65.4c0.6,0.3,1.1,0.6,1.7,0.9l25.9,14.1l-25.9,14.1
	c-23,12.9-31.2,42.1-18.2,65.1c12.9,23,42.1,31.2,65.1,18.2L208.9,338z"/>
</svg>
