<?xml version="1.0" encoding="utf-8"?>
<!-- Generator: Adobe Illustrator 28.2.0, SVG Export Plug-In . SVG Version: 6.00 Build 0)  -->
<svg version="1.1" id="Layer_1" xmlns="http://www.w3.org/2000/svg" xmlns:xlink="http://www.w3.org/1999/xlink" x="0px" y="0px"
	 viewBox="0 0 512 512" style="enable-background:new 0 0 512 512;" xml:space="preserve">
<path d="M431,173.5l-34.9-34.9l15.1-15.1c6.4-6.1,6.5-16.3,0.4-22.6c-6.1-6.4-16.3-6.5-22.6-0.4c-0.1,0.1-0.3,0.3-0.4,0.4L373.5,116
	l-34.9-34.9c-22.9-21.8-58.8-21.8-81.6,0c-22.5,22.5-22.6,59.1,0,81.6c0,0,0,0,0,0l34.9,34.9l-94.3,94.3L162.7,257
	c-22.9-21.8-58.8-21.8-81.6,0c-22.5,22.5-22.6,59.1,0,81.6c0,0,0,0,0,0l34.9,34.9l-15.1,15.1c-6.4,6.1-6.5,16.3-0.4,22.6
	c6.1,6.4,16.3,6.5,22.6,0.4c0.1-0.1,0.3-0.3,0.4-0.4l15.1-15.1l34.9,34.9c22.5,22.5,59.1,22.6,81.6,0c0,0,0,0,0,0
	c22.5-22.5,22.6-59.1,0-81.6c0,0,0,0,0,0l-34.9-34.9l94.4-94.3l34.9,34.9c22.5,22.5,59.1,22.6,81.6,0c0,0,0,0,0,0
	c22.5-22.5,22.6-59.1,0-81.6C431.1,173.6,431.1,173.5,431,173.5L431,173.5z M240,390.3c0,6.8-2.7,13.4-7.5,18.2
	c-10.2,9.7-26.2,9.7-36.4,0L103.6,316c-10.1-10.1-10.1-26.4,0-36.4c10.1-10.1,26.4-10.1,36.4,0l92.4,92.4
	C237.3,376.9,240,383.4,240,390.3L240,390.3z M408.4,232.6c-10.2,9.7-26.2,9.7-36.4,0l-92.4-92.4c-10.1-10.1-10.1-26.4,0-36.4
	s26.4-10.1,36.4,0l0,0l92.4,92.4C418.4,206.2,418.4,222.5,408.4,232.6C408.4,232.5,408.4,232.5,408.4,232.6L408.4,232.6z"/>
</svg>
