<?xml version="1.0" encoding="utf-8"?>
<!-- Generator: Adobe Illustrator 28.2.0, SVG Export Plug-In . SVG Version: 6.00 Build 0)  -->
<svg version="1.1" id="Layer_1" xmlns="http://www.w3.org/2000/svg" xmlns:xlink="http://www.w3.org/1999/xlink" x="0px" y="0px"
	 viewBox="0 0 512 512" style="enable-background:new 0 0 512 512;" xml:space="preserve">
<path d="M444.2,295.3C418.6,222,347.8,167.6,272,160.8V80c0-8.8-7.2-16-16-16c-8.8,0-16,7.2-16,16v80.8
	C164.2,167.6,93.4,222,67.8,295.3c-7.2,20.5-4,43.2,8.5,60.8c12.6,17.7,32.2,27.9,53.9,27.9H192c0,35.3,28.7,64,64,64s64-28.7,64-64
	h61.7c21.7,0,41.4-10.2,53.9-27.9C448.1,338.5,451.3,315.8,444.2,295.3L444.2,295.3z M256,416c-17.6,0-32-14.4-32-32h64
	C288,401.6,273.7,416,256,416z M409.6,337.6c-6.5,9.1-16.6,14.4-27.8,14.4H130.3c-11.2,0-21.4-5.2-27.8-14.4
	c-6.6-9.3-8.2-20.9-4.4-31.7c23-66,89.5-113.9,158-113.9S391,239.9,414,305.9C417.8,316.7,416.2,328.3,409.6,337.6L409.6,337.6z"/>
</svg>
