<?xml version="1.0" encoding="utf-8"?>
<!-- Generator: Adobe Illustrator 28.2.0, SVG Export Plug-In . SVG Version: 6.00 Build 0)  -->
<svg version="1.1" id="Layer_1" xmlns="http://www.w3.org/2000/svg" xmlns:xlink="http://www.w3.org/1999/xlink" x="0px" y="0px"
	 viewBox="0 0 512 512" style="enable-background:new 0 0 512 512;" xml:space="preserve">
<path d="M240.1,112V80c0-8.8,7.2-16,16-16c8.8,0,16,7.2,16,16v32c0,8.8-7.2,16-16,16C247.2,128,240.1,120.8,240.1,112z M320.1,128
	c8.8,0,16-7.2,16-16V80c0-8.8-7.2-16-16-16s-16,7.2-16,16v32C304.1,120.8,311.2,128,320.1,128z M192.1,128c8.8,0,16-7.2,16-16V80
	c0-8.8-7.2-16-16-16s-16,7.2-16,16v32C176.1,120.8,183.2,128,192.1,128z M446.8,219.1c-11.7,51-45.5,95.5-92.1,122.4l28.5,85.5
	c2.8,8.4-1.7,17.4-10.1,20.2c-1.7,0.6-3.4,0.8-5.1,0.8c-6.7,0-12.9-4.2-15.2-10.9l-7-21.1H239.4c-8.8,0-16-7.2-16-16s7.2-16,16-16
	h95.8l-10.7-32H187.6l-8.9,26.7c7.8,7.3,12.8,17.7,12.8,29.3c0,22.1-17.9,40-40,40s-40-17.9-40-40c0-21.1,16.4-38.4,37.1-39.9
	l8.9-26.7c-46.6-26.8-80.4-71.4-92.1-122.4c-3.3-14.5,0.1-29.4,9.3-41c9.2-11.5,22.8-18.1,37.5-18.1h288c14.7,0,28.3,6.6,37.5,18.1
	C446.8,189.7,450.1,204.6,446.8,219.1L446.8,219.1z M412.5,198c-1.8-2.2-5.8-6-12.5-6h-288c-6.7,0-10.7,3.8-12.5,6
	c-3.1,3.9-4.3,9-3.1,13.9c10.7,46.5,43.7,86.7,88.8,108.1h141.5c45.1-21.4,78.2-61.6,88.8-108.1C416.8,207,415.6,201.9,412.5,198
	L412.5,198z"/>
</svg>
