<?xml version="1.0" encoding="utf-8"?>
<!-- Generator: Adobe Illustrator 28.2.0, SVG Export Plug-In . SVG Version: 6.00 Build 0)  -->
<svg version="1.1" id="Layer_1" xmlns="http://www.w3.org/2000/svg" xmlns:xlink="http://www.w3.org/1999/xlink" x="0px" y="0px"
	 viewBox="0 0 512 512" style="enable-background:new 0 0 512 512;" xml:space="preserve">
<path d="M368,88.6H144c-44.1,0-80,35.9-80,80v144c0,32.7,19.8,60.8,48,73.2v22.8c0,8.8,7.2,16,16,16s16-7.1,16-16v-16H368v16
	c0,8.8,7.2,16,16,16s16-7.1,16-16v-22.8c28.2-12.4,48-40.5,48-73.2v-144C447.9,124.4,412.1,88.6,368,88.6z M416,312.5
	c0,26.5-21.5,48-48,48H144c-26.5,0-48-21.5-48-48v-144c0-26.5,21.5-48,48-48H368c26.5,0,48,21.5,48,48V312.5z M288,152.5H160
	c-17.6,0-32,14.3-32,32v112c0,17.6,14.3,32,32,32h128c17.6,0,32-14.3,32-32v-112C320,166.9,305.6,152.5,288,152.5z M160,296.5v-112
	h128v112H160z M384,168.5v144c0,8.8-7.2,16-16,16s-16-7.1-16-16v-144c0-8.8,7.2-16,16-16S384,159.7,384,168.5z"/>
</svg>
