<?xml version="1.0" encoding="utf-8"?>
<!-- Generator: Adobe Illustrator 28.2.0, SVG Export Plug-In . SVG Version: 6.00 Build 0)  -->
<svg version="1.1" id="Layer_1" xmlns="http://www.w3.org/2000/svg" xmlns:xlink="http://www.w3.org/1999/xlink" x="0px" y="0px"
	 viewBox="0 0 512 512" style="enable-background:new 0 0 512 512;" xml:space="preserve">
<g>
	<path d="M459.8,246.2c-2.2-5.9-6.7-8.9-12.5-8.3c-5.6,0.6-9.9,4.7-10.7,10.7c-0.6,4.3-1.1,8.7-1.6,13.1
		c-2.8,22.1-5.6,44.1-8.2,66.2c-0.3,2.6-1.3,3.4-4,3.3c-17.2-0.1-34.3-0.1-51.5-0.1c-7.9,0-13.1,4.4-13.2,11.9
		c-0.2,25-0.1,50.1-0.1,75.1c0,0.5,0.1,1.1,0.1,1.6c0.9,6.7,7.3,11.3,13.9,10c6.5-1.3,9.9-5.9,9.9-13.9c0-18.9,0.1-37.8,0-56.8
		c0-3,0.5-4.1,3.8-4c11.7,0.2,23.4,0.2,35.1,0c3.1,0,4,0.7,4,3.9c-0.2,18.8-0.1,37.6-0.1,56.4c0,2,0.1,4,0.6,5.9
		c1.6,6.1,7.7,9.8,13.8,8.4c6-1.3,9.4-5.9,9.4-12.9c0-23.1,0-46.1,0-69.2c0-1.9,0.1-3.7,0.4-5.6c2.8-22.3,5.4-44.7,8.4-67
		c0.9-6.9,1.1-14,3.1-20.7c0-2.4,0-4.8,0-7.2C460.3,246.7,459.9,246.5,459.8,246.2z"/>
	<path d="M357.1,288.1c-2.7-4.2-6.9-5.4-11.7-5.4c-24.3,0.1-48.7,0-73,0.1c-3.2,0-4.3-0.5-4.2-4c0.2-22.5,0.1-45,0-67.6
		c0-2.7,0.6-3.5,3.4-3.7c16-1,31.7-3.4,46.4-10.2c3.2-1.5,6.3-4.8,9.4-4.8c3.2,0,6.3,3.3,9.7,4.8c15.5,7,31.6,7.9,47.9,3.6
		c9.9-2.7,18.5-7.9,24.9-16.2c5-6.5,5.1-11.3,0.7-18.2c-5.3-8.2-11.1-16-17.6-23.2c-30.6-34-68.6-54.1-113.7-60.1
		c-29.9-4-59.1-0.4-87.4,10.3c-38.5,14.7-68.7,39.7-90.9,74.5c-3,4.7-2.9,9.5,0.1,14.3c2.5,4,5.7,7.3,9.4,10.2
		c10.7,8.2,23.1,11.1,36.3,11c12-0.1,23.6-2.1,33.8-9c3.2-2.2,5.5-2.5,8.6-0.1c2,1.6,4.6,2.6,7.1,3.6c14.2,6.2,29.3,8.4,44.6,9.4
		c3.1,0.2,3.5,1.2,3.5,4c-0.1,22.4-0.1,44.8,0,67.2c0,3.2-0.6,4.2-4.1,4.2c-23.3-0.2-46.6-0.1-69.8-0.1c-2.2,0-4.5-0.2-6.7,0.6
		c-5.3,1.9-8.7,7.4-7.9,12.9c0.8,5.8,5.4,10.1,11.8,10.4c6.2,0.3,12.5,0.3,18.7,0c3.5-0.2,4.1,1,4.1,4.2
		c-0.1,34.4-0.1,68.8-0.1,103.1c0,1.7,0,3.5,0.2,5.2c0.8,6.1,5.6,10.4,11.6,10.4c6.1,0,11-4.2,11.8-10.3c0.2-1.8,0.3-3.7,0.3-5.6
		c0-34.4,0-68.8-0.1-103.1c0-3.1,0.7-4,3.9-4c25.7,0.1,51.3,0.1,77,0c2.8,0,3.5,0.8,3.4,3.5c-0.1,22.7-0.1,45.3-0.1,68
		c0,12.9,0,25.9,0,38.8c0,6.7,4.1,11.6,10,12.5c7.8,1.1,13.9-4.2,13.9-12.5c0.1-17.7,0-35.4,0-53.2c0-17.6,0.1-35.2-0.1-52.8
		c0-3.4,0.7-4.5,4.3-4.3c6.6,0.3,13.3,0.2,19.9,0.1c4.8-0.1,8.7-2,11.1-6.5C359.8,296.1,359.6,292,357.1,288.1z M364,147.9
		c7.7,7.2,14.6,15.1,20.9,23.6c1.4,1.9,1.7,2.8-0.6,4.1c-11.2,6.4-32.9,4.8-42.8-3.4c-1-0.8-2.1-1.5-2.3-3
		c-2.6-20.2-11.7-37.3-25.2-52.3C332.8,123.9,349.4,134.4,364,147.9z M183.7,137.4c-5.2,9.4-8.8,19.3-10.1,30
		c-0.3,2.7-1.6,4.5-3.7,5.7c-13.1,7.8-26.7,8.5-40.8,2.9c-2.8-1.1-3.3-2.3-1.2-5c18-24.3,40.8-42.4,68.8-53.7
		c0.6-0.2,1.1-0.8,2.1-0.3C193,123.3,187.8,130,183.7,137.4z M256.4,184c-16-0.1-32-0.6-47-6.6c-14.8-5.9-13.7-4.2-9-18.5
		c4.3-13.3,13.1-23.7,23.6-32.5c9-7.5,18.9-13.7,29.6-18.6c1.5-0.7,2.8-1.3,4.5-0.5c17.9,8.4,34,19.1,45.8,35.5
		c5.5,7.7,9.2,16.1,11.1,25.4c0.5,2.5-0.1,3.6-2,4.8c-8.8,5.4-18.6,7.7-28.6,9.2C275,183.6,265.7,184,256.4,184z"/>
	<path d="M154.3,345.2c0-9.6-4.6-14.1-14.2-14.1c-16.6,0-33.2-0.2-49.9,0.1c-3.6,0.1-4.4-1.2-4.8-4.3c-3.2-25.9-6.4-51.8-9.7-77.6
		c-0.9-7.4-6.4-12.1-13.3-11.3c-6.9,0.8-11.4,6.6-10.5,13.9c2.4,19.8,5,39.6,7.5,59.4c2.2,18,4.8,35.8,4.3,54.1
		c-0.5,16.4-0.1,32.8-0.1,49.2c0,1.5,0,2.9,0.1,4.4c0.4,5.8,4.5,10.1,10.3,10.9c5.1,0.8,10.5-2.3,12.5-7.3c0.9-2.3,1-4.6,1-7.1
		c0-18.9,0.1-37.8-0.1-56.7c0-3.1,0.8-3.7,3.8-3.7c11.8,0.2,23.7,0.2,35.5,0c3.1-0.1,3.7,1,3.7,3.8c-0.1,18.6-0.1,37.3,0,55.9
		c0,1.9,0,3.8,0.4,5.6c0.9,4.7,3.8,7.8,8.5,9.1c8,2.2,14.9-3.3,15-12.3c0.2-12.1,0-24.2,0-36.4C154.3,368.9,154.4,357,154.3,345.2z"
		/>
</g>
</svg>
