<?xml version="1.0" encoding="utf-8"?>
<!-- Generator: Adobe Illustrator 28.2.0, SVG Export Plug-In . SVG Version: 6.00 Build 0)  -->
<svg version="1.1" id="Layer_1" xmlns="http://www.w3.org/2000/svg" xmlns:xlink="http://www.w3.org/1999/xlink" x="0px" y="0px"
	 viewBox="0 0 512 512" style="enable-background:new 0 0 512 512;" xml:space="preserve">
<path d="M96.2,96.1c0-8.8,7.2-16,16-16h78.6c26.1,0,50.6,12.7,65.5,34.1l81.8,117c5.1,7.2,3.3,17.2-3.9,22.3
	c-7.2,5.1-17.2,3.3-22.3-3.9l-55.5-79.4l-134.6,98.7c-7.1,5.2-17.1,3.7-22.4-3.4c-5.2-7.1-3.7-17.1,3.4-22.4l0,0L238,144l-7.9-11.3
	c-9-12.9-23.6-20.5-39.3-20.6h-78.6C103.4,112.1,96.2,105,96.2,96.1z M421.3,391.7c-5.9,5.3-13.4,8.2-21.3,8.2
	c-14.2,0-27.1-8.3-32.9-21.3c-3-8.3-12.1-12.7-20.4-9.7c-4.5,1.6-8.1,5.2-9.7,9.7c-8.1,18.2-29.4,26.3-47.6,18.2
	c-8.1-3.6-14.6-10.1-18.2-18.2c-3-8.3-12.1-12.7-20.4-9.7c-4.5,1.6-8.1,5.2-9.7,9.7c-8.1,18.2-29.4,26.3-47.6,18.2
	c-8.1-3.6-14.6-10.1-18.2-18.2c-3-8.3-12.1-12.7-20.4-9.7c-4.5,1.6-8.1,5.2-9.7,9.7c-5.8,13-18.7,21.3-32.9,21.3
	c-7.9,0-15.5-2.9-21.3-8.2c-6.6-5.8-16.7-5.1-22.6,1.5c-5.7,6.5-5.2,16.4,1.2,22.3c11.7,10.5,26.9,16.3,42.6,16.3
	c17.9-0.2,35.1-7.2,48-19.6c26.6,26.1,69.3,26.1,95.9,0c26.6,26.1,69.3,26.1,95.9,0c12.9,12.4,30.1,19.4,48,19.6
	c15.8,0,30.9-5.8,42.6-16.4c6.7-5.7,7.6-15.8,1.9-22.5c-5.7-6.7-15.8-7.6-22.5-1.9C421.7,391.3,421.5,391.5,421.3,391.7L421.3,391.7
	z M112.2,351.9c17.9-0.2,35.1-7.2,48-19.6c26.6,26.1,69.3,26.1,95.9,0c26.6,26.1,69.3,26.1,95.9,0c12.9,12.4,30.1,19.4,48,19.6
	c15.8,0,30.9-5.8,42.6-16.4c6.7-5.7,7.6-15.8,1.9-22.5c-5.7-6.7-15.8-7.6-22.5-1.9c-0.3,0.2-0.5,0.4-0.7,0.7
	c-5.8,5.3-13.4,8.2-21.3,8.2c-14.2,0-27.1-8.3-32.9-21.3c-3-8.3-12.1-12.7-20.4-9.7c-4.5,1.6-8.1,5.2-9.7,9.7
	c-8.1,18.2-29.4,26.3-47.6,18.2c-8.1-3.6-14.6-10.1-18.2-18.2c-3-8.3-12.1-12.7-20.4-9.7c-4.5,1.6-8.1,5.2-9.7,9.7
	c-8.1,18.2-29.4,26.3-47.6,18.2c-8.1-3.6-14.6-10.1-18.2-18.2c-3-8.3-12.1-12.7-20.4-9.7c-4.5,1.6-8.1,5.2-9.7,9.7
	c-5.8,13-18.7,21.3-32.9,21.3c-7.9,0-15.5-2.9-21.3-8.2c-6.6-5.8-16.7-5.1-22.6,1.5c-5.7,6.5-5.2,16.4,1.2,22.3
	C81.3,346.1,96.5,351.9,112.2,351.9z M360,192.1c22.1,0,40-17.9,40-40s-17.9-40-40-40s-40,17.9-40,40S337.9,192.1,360,192.1z"/>
</svg>
