<?xml version="1.0" encoding="utf-8"?>
<!-- Generator: Adobe Illustrator 28.1.0, SVG Export Plug-In . SVG Version: 6.00 Build 0)  -->
<svg version="1.1" id="Layer_1" xmlns="http://www.w3.org/2000/svg" xmlns:xlink="http://www.w3.org/1999/xlink" x="0px" y="0px"
	 viewBox="0 0 512 512" style="enable-background:new 0 0 512 512;" fill="#1B75BB" xml:space="preserve">
<path d="M63.6,279c0.9-12.4,7.4-22.5,19.9-28c12.9-5.7,24.6-2.8,34.4,6.8c22.6,22.3,45.1,44.6,67.3,67.4c5.1,5.3,7.6,5.5,13,0.1
	c64.1-64.5,128.5-128.8,192.8-193.1c15.3-15.3,34.7-15.8,48.1-1.3c11.1,12,11.6,29,1,41.6c-1.6,1.9-3.4,3.6-5.2,5.4
	c-72.4,72.4-144.9,144.9-217.3,217.3c-17.9,17.9-33.8,17.8-51.6,0c-30.4-30.4-60.7-60.8-91.2-91.1C68,297.4,63.8,289.8,63.6,279z"/>
</svg>
