<?xml version="1.0" encoding="utf-8"?>
<!-- Generator: Adobe Illustrator 28.1.0, SVG Export Plug-In . SVG Version: 6.00 Build 0)  -->
<svg version="1.1" id="Layer_1" xmlns="http://www.w3.org/2000/svg" xmlns:xlink="http://www.w3.org/1999/xlink" x="0px" y="0px"
	 viewBox="0 0 512 512" style="enable-background:new 0 0 512 512;" fill="#051421" xml:space="preserve">
<path d="M402.4,197.6C395.7,122.3,331.7,63.7,246.9,64c-50.4,2.5-95.1,28.9-122.3,82.2c-14.1,27.5-19.6,57.2-11.7,88
	c5.4,21.2,15,40.7,26,59.5c32,55.3,72,104.7,114.2,152.3c3.1,3.4,4.3,2,6.5-0.5c16.8-18.9,33.2-38,48.8-57.8
	c28.1-35.9,55-72.3,75.3-113.3C395.6,250.3,404.9,225.5,402.4,197.6z M255.8,263.6c-30.6-0.2-55.3-25.2-55.2-55.8
	c0.2-30.9,25.2-55.6,56.3-55.3c30.5,0.2,55,25.4,54.9,56.1C311.6,239.1,286.4,263.7,255.8,263.6z"/>
</svg>
