<?xml version="1.0" encoding="utf-8"?>
<!-- Generator: Adobe Illustrator 28.1.0, SVG Export Plug-In . SVG Version: 6.00 Build 0)  -->
<svg version="1.1" id="Layer_1" xmlns="http://www.w3.org/2000/svg" xmlns:xlink="http://www.w3.org/1999/xlink" x="0px" y="0px"
	 viewBox="0 0 512 512" style="enable-background:new 0 0 512 512;" fill="#051421" xml:space="preserve">
<path d="M440.9,401.8c-12.9,12.8-25.2,26.5-42.1,34.5c-23,11-46.7,13-71.2,5.9c-64.2-18.7-117.3-55.3-164-102.1
	c-35.8-35.9-65-76.4-85.1-123.2C70.8,198.6,63.5,180,64,159.6C64.9,132.7,75,110,93.8,91c6.2-6.2,12.3-12.5,18.6-18.6
	c9.1-8.8,17.1-9,25.9-0.2c21.5,21.4,43,42.9,64.4,64.4c8.8,8.9,8.6,16.9-0.3,25.9c-11.8,12-23.8,23.8-35.7,35.8
	c-14.7,14.9-15.7,30.9-3.2,47.7c30,40.3,65.4,74.9,106.2,104.2c16,11.5,32.6,10.2,46.7-4c11.4-11.4,22.6-23,34-34.4
	c9.4-9.5,17.6-9.6,26.9-0.3c21.2,21.1,42.3,42.3,63.4,63.5C450.4,384.5,450.4,392.4,440.9,401.8z"/>
</svg>
