<?xml version="1.0" encoding="utf-8"?>
<!-- Generator: Adobe Illustrator 16.0.0, SVG Export Plug-In . SVG Version: 6.00 Build 0)  -->
<!DOCTYPE svg PUBLIC "-//W3C//DTD SVG 1.1//EN" "http://www.w3.org/Graphics/SVG/1.1/DTD/svg11.dtd">
<svg version="1.1" id="Layer_1" xmlns="http://www.w3.org/2000/svg" xmlns:xlink="http://www.w3.org/1999/xlink" x="0px" y="0px"
	 width="145px" height="31px" viewBox="0 0 145 31" enable-background="new 0 0 145 31" xml:space="preserve">
<g>
	<path fill="#F2561B" d="M46.35,12.189h-7.367v15.149h3.156v-4.831h4.211c2.453,0,3.682-1.229,3.682-3.688v-2.942
		C50.031,13.418,48.803,12.189,46.35,12.189z M46.877,18.995c0,0.438-0.221,0.661-0.66,0.661h-4.078v-4.613h4.078
		c0.439,0,0.66,0.221,0.66,0.658V18.995z"/>
	<path fill="#F2561B" d="M55.777,15.746c-1.535,0-2.572,0.498-3.113,1.492v10.101h3.023v-8.673c0.148-0.189,0.418-0.285,0.814-0.285
		h2.957v-1.647l-1.314-0.987H55.777z"/>
	<rect x="61.609" y="15.746" fill="#F2561B" width="3.025" height="11.593"/>
	<rect x="61.564" y="10.915" fill="#F2561B" width="3.113" height="2.942"/>
	<path fill="#F2561B" d="M80.988,15.746H67.791v11.593h3.027v-8.958h3.836v8.958h3.027v-8.958h3.133
		c0.467,0,0.703,0.233,0.703,0.704v8.254h3.025v-8.035C84.543,16.933,83.359,15.746,80.988,15.746z"/>
	<path fill="#F2561B" d="M93.838,15.746H90.99c-2.369,0-3.553,1.187-3.553,3.558v4.479c0,2.37,1.184,3.556,3.553,3.556h4.646
		l1.316-0.987v-1.646h-5.789c-0.469,0-0.701-0.235-0.701-0.703v-1.318h6.93v-3.381C97.393,16.933,96.207,15.746,93.838,15.746z
		 M94.365,20.314h-3.902v-1.229c0-0.471,0.232-0.704,0.701-0.704h2.5c0.465,0,0.701,0.233,0.701,0.704V20.314z"/>
	<path fill="#F2561B" d="M107.936,12.189h-7.17v15.149h1.844v-5.576h5.326c2.238,0,3.355-1.121,3.355-3.359v-2.854
		C111.291,13.309,110.174,12.189,107.936,12.189z M109.449,18.602c0,0.995-0.498,1.492-1.492,1.492h-5.348v-6.236h5.348
		c0.994,0,1.492,0.498,1.492,1.494V18.602z"/>
	<path fill="#F2561B" d="M119.096,15.922h-3.813l-0.877,0.657v0.878h4.689c1.025,0,1.535,0.515,1.535,1.538v1.713h-4.012
		c-2.207,0-3.313,1.105-3.313,3.315c0,2.213,1.105,3.315,3.313,3.315h5.768v-8.122C122.387,17.021,121.289,15.922,119.096,15.922z
		 M120.631,25.804h-4.035c-1.021,0-1.533-0.515-1.533-1.539v-0.481c0-1.025,0.512-1.54,1.533-1.54h4.035V25.804z"/>
	<path fill="#F2561B" d="M127.473,24.265v-6.808h4.164v-1.535h-4.164v-3.732h-1.756v11.855c0,2.197,1.098,3.294,3.289,3.294h1.975
		l0.877-0.657v-0.878h-2.852C127.982,25.804,127.473,25.289,127.473,24.265z"/>
	<path fill="#F2561B" d="M140.537,15.922h-4.383v-4.831h-1.756v16.248h1.756v-9.882h4.383c1.025,0,1.537,0.515,1.537,1.538v8.344
		h1.754v-8.122C143.828,17.021,142.732,15.922,140.537,15.922z"/>
</g>
<g>
	<polygon fill="#F2561B" points="22.795,0.682 21.702,0.682 28.684,30.317 31.174,30.317 	"/>
	<path fill="#F2561B" d="M16.902,0.684l0.067,2.181h-1.592l0.066-2.181L11.5,0.682L4.512,30.317h10.02l0.202-6.552h2.879
		l0.202,6.552h10.019L20.848,0.682L16.902,0.684z M15.34,4.027h1.665l0.118,3.871h-1.901L15.34,4.027z M15.18,9.283h1.986
		l0.14,4.532H15.04L15.18,9.283z M14.812,21.205l0.167-5.412h2.388l0.167,5.412H14.812z"/>
	<polygon fill="#F2561B" points="9.55,0.682 1.173,30.317 3.664,30.317 10.644,0.682 	"/>
</g>
</svg>
