<?xml version="1.0" encoding="utf-8"?>
<!-- Generator: Adobe Illustrator 16.0.0, SVG Export Plug-In . SVG Version: 6.00 Build 0)  -->
<!DOCTYPE svg PUBLIC "-//W3C//DTD SVG 1.1//EN" "http://www.w3.org/Graphics/SVG/1.1/DTD/svg11.dtd">
<svg version="1.1" id="Outline" xmlns="http://www.w3.org/2000/svg" xmlns:xlink="http://www.w3.org/1999/xlink" x="0px" y="0px"
	 width="512px" height="512px" fill="#f57813" viewBox="0 0 512 512" enable-background="new 0 0 512 512" xml:space="preserve">
<path d="M428.813,264.141V236.8c0-95.435-77.365-172.8-172.8-172.8c-95.435,0-172.8,77.366-172.8,172.8v27.341
	c-48.523,21.366-70.539,78.023-49.173,126.547c15.295,34.735,49.619,57.199,87.573,57.313c21.208,0,38.4-17.192,38.4-38.399V294.399
	c0-21.207-17.192-38.399-38.4-38.399v-19.2c0-74.227,60.173-134.4,134.4-134.4s134.4,60.173,134.4,134.4V256
	c-21.207,0-38.399,17.192-38.399,38.399v115.201h-57.601c-10.604,0-19.199,8.596-19.199,19.199c0,10.604,8.596,19.2,19.199,19.2h96
	c53.02-0.158,95.871-43.267,95.713-96.287C486.012,313.76,463.548,279.436,428.813,264.141z M121.612,409.601L121.612,409.601
	c-31.812,0-57.6-25.789-57.6-57.602c0-31.811,25.789-57.6,57.6-57.6V409.601z M390.412,409.601V294.399
	c31.813,0,57.6,25.789,57.6,57.6C448.012,383.812,422.225,409.601,390.412,409.601z"/>
</svg>
