<?xml version="1.0" encoding="utf-8"?>
<!-- Generator: Adobe Illustrator 16.0.0, SVG Export Plug-In . SVG Version: 6.00 Build 0)  -->
<!DOCTYPE svg PUBLIC "-//W3C//DTD SVG 1.1//EN" "http://www.w3.org/Graphics/SVG/1.1/DTD/svg11.dtd">
<svg version="1.1" id="Layer_1" xmlns="http://www.w3.org/2000/svg" xmlns:xlink="http://www.w3.org/1999/xlink" x="0px" y="0px"
	 width="512px" height="512px" fill="#f5cf13" viewBox="0 0 512 512" enable-background="new 0 0 512 512" xml:space="preserve">
<g>
	<path d="M350.166,295.55c11.185-15.696,17.84-34.833,17.84-55.537c0-52.944-43.056-96.001-96.001-96.001
		c-52.945,0-96.001,43.057-96.001,96.001c0,52.945,43.057,96.001,96.001,96.001c20.704,0,39.841-6.655,55.536-17.84l61.153,61.153
		c3.12,3.12,7.217,4.688,11.313,4.688s8.192-1.568,11.313-4.688c6.256-6.257,6.256-16.368,0-22.625L350.166,295.55z
		 M272.005,304.014c-35.297,0-64.001-28.704-64.001-64.001c0-35.296,28.704-64,64.001-64c35.296,0,64.001,28.704,64.001,64
		C336.006,275.31,307.301,304.014,272.005,304.014z"/>
	<path d="M447.271,223.725c-7.279-80.577-70.577-147.026-150.515-158.034c-64.577-8.769-126.545,16.944-165.202,68.545
		c-20.657,25.536-67.569,115.041-67.569,137.763c0,15.52,11.216,32,32.001,32h5.28l3.504,26.496
		c5.248,39.633,39.345,69.505,79.313,69.505h7.905c0,26.465,21.536,48.001,48,48.001H351.99c8.433,0,16.735-2.208,24-6.416
		c7.648-4.432,10.272-14.208,5.855-21.856c-4.415-7.663-14.224-10.271-21.855-5.855c-2.416,1.407-5.185,2.144-8,2.144H239.988
		c-8.833,0-16-7.168-16-16v-16c0-8.849-7.152-16.001-16-16.001h-23.905c-23.984,0-44.448-17.936-47.6-41.696l-5.344-40.385
		c-1.04-7.952-7.824-13.904-15.856-13.904l-19.312,0.385c1.328-13.297,39.344-91.922,60.833-118.499
		c31.936-42.625,82.593-63.729,135.602-56.497c65.329,8.976,117.042,63.313,122.993,129.202c1.984,22-0.848,43.457-8.464,63.793
		c-3.088,8.272,1.104,17.504,9.376,20.592c8.272,3.088,17.505-1.104,20.593-9.376v-0.017
		C446.215,276.75,449.688,250.558,447.271,223.725z"/>
</g>
</svg>
