<?xml version="1.0" encoding="utf-8"?>
<!-- Generator: Adobe Illustrator 16.0.0, SVG Export Plug-In . SVG Version: 6.00 Build 0)  -->
<!DOCTYPE svg PUBLIC "-//W3C//DTD SVG 1.1//EN" "http://www.w3.org/Graphics/SVG/1.1/DTD/svg11.dtd">
<svg version="1.1" id="Layer_1" xmlns="http://www.w3.org/2000/svg" xmlns:xlink="http://www.w3.org/1999/xlink" x="0px" y="0px"
	 width="512px" height="512px" fill="#15bfbc" viewBox="0 0 512 512" enable-background="new 0 0 512 512" xml:space="preserve">
<path d="M443.375,420.745l-95.431-95.432c22.597-27.607,36.2-62.848,36.2-101.209c0-88.246-71.793-160.04-160.04-160.04
	S64.064,135.858,64.064,224.104c0,88.247,71.794,160.041,160.041,160.041c38.377,0,73.618-13.604,101.208-36.201l95.433,95.432
	c3.121,3.12,7.218,4.689,11.314,4.689s8.193-1.569,11.314-4.689C449.633,437.117,449.633,427.003,443.375,420.745z M96.073,224.104
	c0-70.594,57.438-128.032,128.032-128.032c70.593,0,128.032,57.438,128.032,128.032c0,70.593-57.438,128.032-128.032,128.032
	C153.511,352.136,96.073,294.697,96.073,224.104z M304.028,256.016c0,8.85-7.17,16.004-16.004,16.004H159.993
	c-8.834,0-16.004-7.154-16.004-16.004c0-8.851,7.17-16.004,16.004-16.004v-32.008c0-8.85,7.169-16.004,16.004-16.004
	S192,199.154,192,208.004v32.008h16.004v-80.02c0-8.851,7.169-16.004,16.004-16.004c8.834,0,16.004,7.154,16.004,16.004v80.02
	h16.004V192c0-8.851,7.169-16.004,16.005-16.004c8.833,0,16.003,7.153,16.003,16.004v48.012
	C296.858,240.012,304.028,247.166,304.028,256.016z"/>
</svg>
