<?xml version="1.0" encoding="utf-8"?>
<!-- Generator: Adobe Illustrator 16.0.0, SVG Export Plug-In . SVG Version: 6.00 Build 0)  -->
<!DOCTYPE svg PUBLIC "-//W3C//DTD SVG 1.1//EN" "http://www.w3.org/Graphics/SVG/1.1/DTD/svg11.dtd">
<svg version="1.1" id="Layer_1" xmlns="http://www.w3.org/2000/svg" xmlns:xlink="http://www.w3.org/1999/xlink" x="0px" y="0px"
	 width="512px" height="512px" fill="#d90769" viewBox="0 0 512 512" enable-background="new 0 0 512 512" xml:space="preserve">
<path d="M310.439,160c0-52.944-43.057-96-96-96c-52.944,0-96,43.056-96,96c0,52.943,43.056,96,96,96
	C267.383,256,310.439,212.943,310.439,160z M214.44,224c-35.296,0-64-28.704-64-64s28.704-64,64-64c35.296,0,64,28.704,64,64
	S249.736,224,214.44,224z M214.312,303.008c1.088,8.769-5.12,16.752-13.904,17.856C144.552,327.84,102.424,375.6,102.424,432
	c0,8.832-7.168,16-16,16s-16-7.168-16-16c0-72.496,54.176-133.92,126.016-142.88c8.672-1.104,16.752,5.12,17.856,13.904
	L214.312,303.008z M433.575,370.128l-15.584-8.991c2.656-7.953,4.448-16.305,4.448-25.152c0-8.849-1.776-17.2-4.448-25.152
	l15.584-8.992c7.648-4.416,10.271-14.208,5.856-21.855c-4.433-7.664-14.192-10.305-21.856-5.857l-15.567,8.993
	c-11.28-12.704-26.305-22.001-43.568-25.505V240c0-8.832-7.168-16-16-16s-16,7.168-16,16v17.615
	c-17.265,3.521-32.288,12.816-43.568,25.505l-15.567-8.993c-7.681-4.431-17.44-1.807-21.856,5.857s-1.792,17.439,5.856,21.855
	l15.584,8.992c-2.656,7.952-4.448,16.304-4.448,25.152c0,8.848,1.776,17.199,4.448,25.152l-15.584,8.991
	c-7.648,4.416-10.272,14.208-5.856,21.855c2.976,5.137,8.336,8.001,13.873,8.001c2.703,0,5.456-0.688,7.983-2.145l15.567-8.992
	c11.28,12.704,26.304,22,43.568,25.504v17.616c0,8.833,7.168,16,16,16s16-7.167,16-16v-17.616
	c17.264-3.52,32.288-12.815,43.568-25.504l15.567,8.992c2.528,1.456,5.28,2.145,7.984,2.145c5.536,0,10.912-2.864,13.872-8.001
	C443.847,384.32,441.224,374.544,433.575,370.128L433.575,370.128z M342.439,383.984c-26.465,0-48.001-21.536-48.001-48
	c0-26.465,21.536-48,48.001-48c26.464,0,48,21.535,48,48C390.439,362.448,368.903,383.984,342.439,383.984z"/>
</svg>
