<?xml version="1.0" encoding="utf-8"?>
<!-- Generator: Adobe Illustrator 16.0.0, SVG Export Plug-In . SVG Version: 6.00 Build 0)  -->
<!DOCTYPE svg PUBLIC "-//W3C//DTD SVG 1.1//EN" "http://www.w3.org/Graphics/SVG/1.1/DTD/svg11.dtd">
<svg version="1.1" id="Layer_1" xmlns="http://www.w3.org/2000/svg" xmlns:xlink="http://www.w3.org/1999/xlink" x="0px" y="0px"
	 width="512px" height="512px" fill="#15a04a" viewBox="0 0 512 512" enable-background="new 0 0 512 512" xml:space="preserve">
<path d="M160.036,104c0-22.096,17.904-40,40-40s40,17.904,40,40c0,22.096-17.903,40-40,40S160.036,126.096,160.036,104z
	 M155.492,211.168c24.127-24.72,64.976-24.72,89.088,0c3.136,3.216,7.296,4.832,11.456,4.832c4.033,0,8.064-1.52,11.167-4.544
	c6.336-6.176,6.449-16.304,0.289-22.624C249.347,170.24,225.396,160,200.036,160c-25.36,0-49.312,10.24-67.456,28.832
	c-6.176,6.336-6.048,16.448,0.288,22.624C139.188,217.616,149.315,217.52,155.492,211.168z M435.811,272.24L326.947,394.432
	C296.611,428.48,253.06,448,207.476,448h-79.44c-35.296,0-64-28.704-64-64v-80c0-35.296,28.704-64,64-64h141.712
	c18.24,0,34.225,9.744,43.023,24.305l51.473-56.544c8.654-9.52,20.495-15.088,33.359-15.696c12.704-0.48,25.167,3.824,34.703,12.512
	c19.424,17.695,20.992,48.064,3.488,67.68L435.811,272.24z M410.771,228.208c-3.184-2.912-7.344-4.512-11.647-4.208
	c-4.319,0.208-8.304,2.08-11.2,5.264l-70.815,77.84c-6.16,17.12-21.424,30.24-40.225,32.929l-82.576,11.792
	c-8.815,1.184-16.864-4.832-18.111-13.584c-1.248-8.752,4.832-16.864,13.583-18.112l82.576-11.792
	c8.961-1.264,15.68-9.039,15.68-18.08c0-10.08-8.207-18.287-18.287-18.287H128.036c-17.648,0-32,14.352-32,31.999v80
	c0,17.647,14.353,32.001,32,32.001h79.44c36.464,0,71.296-15.633,95.583-42.849l108.864-122.208
	c5.888-6.592,5.376-16.801-1.152-22.736V228.208z"/>
</svg>
