<?xml version="1.0" encoding="utf-8"?>
<!-- Generator: Adobe Illustrator 16.0.0, SVG Export Plug-In . SVG Version: 6.00 Build 0)  -->
<!DOCTYPE svg PUBLIC "-//W3C//DTD SVG 1.1//EN" "http://www.w3.org/Graphics/SVG/1.1/DTD/svg11.dtd">
<svg version="1.1" id="Outline" xmlns="http://www.w3.org/2000/svg" xmlns:xlink="http://www.w3.org/1999/xlink" x="0px" y="0px"
	 width="512px" height="512px" fill="#1335f5" viewBox="0 0 512 512" enable-background="new 0 0 512 512" xml:space="preserve">
<g>
	<path d="M319.999,64.003H192c-44.16,0.053-79.946,35.839-79.999,79.999v287.997c0.007,8.837,7.176,15.994,16.012,15.987
		c3.216-0.002,6.356-0.975,9.012-2.788l33.696-23.023l33.695,23.023c5.449,3.732,12.631,3.732,18.08,0l33.599-23.023l33.6,23.023
		c5.453,3.739,12.644,3.739,18.096,0l33.601-23.008l33.6,22.992c7.303,4.976,17.255,3.088,22.23-4.215
		c1.802-2.646,2.769-5.769,2.776-8.969V144.002C399.945,99.842,364.16,64.056,319.999,64.003z M367.998,401.6l-17.6-12.032
		c-5.455-3.746-12.655-3.746-18.111,0l-33.6,23.023l-33.6-23.023c-5.452-3.739-12.643-3.739-18.096,0l-33.6,23.023l-33.6-23.023
		c-5.445-3.725-12.618-3.725-18.063,0L144.001,401.6V144.002c0-26.509,21.49-48,48-48h127.999c26.51,0,47.999,21.49,47.999,48V401.6
		z"/>
	<path d="M319.999,192.001H192c-8.836,0-16,7.163-16,16c0,8.837,7.164,16,16,16h127.999c8.837,0,16-7.163,16-16
		C335.999,199.165,328.836,192.001,319.999,192.001z"/>
	<path d="M287.999,256H192c-8.836,0-16,7.164-16,16c0,8.836,7.164,15.999,16,15.999h95.999c8.838,0,16-7.163,16-15.999
		C303.999,263.164,296.837,256,287.999,256z"/>
</g>
</svg>
