<?xml version="1.0" encoding="utf-8"?>
<!-- Generator: Adobe Illustrator 28.2.0, SVG Export Plug-In . SVG Version: 6.00 Build 0)  -->
<svg version="1.1" id="Layer_1" xmlns="http://www.w3.org/2000/svg" xmlns:xlink="http://www.w3.org/1999/xlink" x="0px" y="0px"
	 viewBox="0 0 512 512" style="enable-background:new 0 0 512 512;" xml:space="preserve">
<style type="text/css">
	.st0{fill:none;}
</style>
<rect x="0" y="0" class="st0" width="512" height="512"/>
<g>
	<path d="M435.5,305.7c0-5.9-2-7.8-7.8-7.8c-16,0-31.9-0.1-47.9,0.1c-3.4,0-4.2-0.8-4.2-4.2c0.1-67.5,0.1-134.9,0.1-202.4
		c0-7.4-1.6-9-9-9c-69.8,0-139.7,0-209.5,0c-7.4,0-9,1.6-9,8.9c0,69.1,0,138.2,0,207.3c0,1.3,0,2.7,0,4c-1.2,0.2-1.8-0.5-2.6-0.9
		c-12.2-5.9-24-5.3-34.9,2.6c-11,7.9-15.3,19.1-13.2,32.4c0.6,3.6-0.3,4.6-3.2,6.3c-12.1,6.6-18.4,17.1-17.8,30.9
		c0.6,13.6,7.6,23.4,20.2,29c9.1,4.1,18.1,3.4,27.6-0.6c0,6.9,0,13.3,0,19.7c0,5,2.3,7.8,6.1,7.7c3.7-0.1,5.8-2.8,5.8-7.6
		c0-6.4,0-12.9,0-19.6c3.7,1.2,6.9,2.6,10.4,2.8c1.6,0.1,1.6,1.2,1.6,2.4c0,4.6,0,9.2,0,13.8c0,6.3,1.9,8.2,8.3,8.2
		c86.3,0,172.6,0,258.9,0c6.3,0,8.2-1.9,8.2-8.3c0-27.8,0.1-55.6-0.1-83.4c0-3.5,0.9-4.3,4.2-4.2c5.8,0.3,7.8-1.9,7.8-7.8
		C435.5,319.2,435.5,312.5,435.5,305.7z M145.7,393c-7.7-1.9-9.5-4.3-9.5-12.3c0-1.7,0.1-3.5,0-5.2c-0.3-3.3-2.7-5.6-5.8-5.7
		c-3.3-0.1-5.9,2.3-6,5.8c-0.2,3-0.3,6,0,9c0.2,2.6-0.9,4.2-2.9,5.5c-7.6,4.8-15.3,5.1-22.9,0.4c-7.7-4.7-11-12-10-21
		c1-8.6,7.5-15.6,15.6-17.7c0.7-0.2,1.5-0.3,2.2-0.5c6.4-1.3,8-4.5,5-10.5c-2.7-5.4-3.1-11-1.2-16.7c3.9-11.5,17-17.4,28.3-12.7
		c11.2,4.6,16.3,17.6,11.3,28.6c-3.4,7.5-2.3,9.7,5.9,11.6c11.7,2.6,18.9,14,16.1,25.5C168.8,389,157.4,395.9,145.7,393z M291.9,415
		c0,2.1-0.6,2.7-2.7,2.7c-9.1-0.1-18.2,0-27.3,0c-9.1,0-18.2-0.1-27.3,0c-2.1,0-2.7-0.6-2.7-2.7c0.1-18.2,0.1-36.4,0-54.6
		c0-2.1,0.6-2.7,2.7-2.7c18.2,0.1,36.4,0.1,54.6,0c2.1,0,2.7,0.6,2.7,2.7C291.8,378.6,291.8,396.8,291.9,415z M363.7,256
		c0,52.6,0,105.3,0.1,157.9c0,3.1-0.7,3.9-3.8,3.8c-17.6-0.2-35.2-0.2-52.7,0c-2.8,0-3.5-0.7-3.4-3.4c0.1-20.1,0.1-40.2,0.1-60.2
		c0-6.4-1.9-8.2-8.2-8.2c-22.6,0-45.1,0-67.7,0c-5.9,0-7.9,2-7.9,7.8c0,20.2-0.1,40.4,0.1,60.6c0,2.7-0.5,3.5-3.4,3.5
		c-17.8-0.2-35.7-0.1-53.5,0c-2.4,0-3.5-0.5-3-3c0-0.1,0-0.3,0-0.4c-0.7-6.2,0.3-10.2,7.3-13.6c11.6-5.6,17-16.5,16.6-29.6
		c-0.5-12.7-6.7-22.3-17.9-28.2c-2.8-1.5-4-2.4-3.1-6c1.4-5.8,0.7-11.7-1.5-17.2c-0.9-2.3-1.3-4.5-1.3-6.9c0-71.5,0-142.9-0.1-214.4
		c0-3.4,0.8-4.2,4.2-4.2c65.1,0.1,130.2,0.1,195.3,0c3.4,0,4.2,0.8,4.2,4.2C363.7,151,363.7,203.5,363.7,256z M411.6,414.5
		c0,2.3-0.3,3.2-3,3.2c-10-0.2-20-0.2-29.9,0c-2.8,0.1-3.2-0.9-3.1-3.4c0.1-13,0.1-25.9,0.1-38.9c0-12.7,0.1-25.4-0.1-38.2
		c0-2.6,0.4-3.6,3.3-3.5c9.8,0.2,19.7,0.2,29.5,0c2.3,0,3.2,0.4,3.1,3C411.5,362.7,411.6,388.6,411.6,414.5z M414.6,321.8
		c-12,0-23.9-0.1-35.9,0.1c-2.4,0-3.1-0.6-3.1-3.1c0.1-9,0-9,9-9c5.1,0,10.2,0,15.3,0c7,0,14,0.1,20.9,0c2.1,0,2.7,0.6,2.7,2.7
		C423.7,321.8,423.8,321.8,414.6,321.8z"/>
	<path d="M172.2,147.4c0,4.6,2.3,6.8,6.9,6.8c7.3,0.1,14.7,0.1,22,0c4.6,0,6.9-2.3,6.9-6.9c0.1-11.3,0-22.7,0-34c0-4.8-2.2-7-7.1-7
		c-7.2,0-14.4,0-21.7,0c-4.9,0-7.1,2.2-7.1,7c0,5.6,0,11.2,0,16.8C172.1,135.9,172.1,141.6,172.2,147.4z M186.3,118.3
		c9.8-0.5,9.8-0.5,9.8,9.3c0,1,0,2,0,3s0,2,0,3c0,9.5-0.7,10-10.4,8.7c-1.4-0.2-1.6-0.7-1.6-1.9c0-6.7,0.1-13.5,0-20.2
		C184,118.5,184.8,118.4,186.3,118.3z"/>
	<path d="M226.9,154.2c7.3,0.1,14.7,0.1,22,0c4.8,0,7-2.3,7-7.2c0-5.6,0-11.2,0-16.8c0-5.6,0-11.2,0-16.8c0-4.9-2.2-7.1-7.1-7.1
		c-7.2,0-14.4,0-21.7,0c-4.9,0-7.2,2.2-7.2,7c0,11.3,0,22.7,0,34C220.1,151.9,222.3,154.2,226.9,154.2z M234.2,118.3
		c9.8-0.5,9.8-0.5,9.8,9.3c0,1,0,2,0,3c0,1.1,0.1,2.2,0,3.4c-0.2,2.7,1.2,7-0.5,7.7c-2.9,1.3-6.8,0.5-10.2,0.6
		c-1.4,0-1.2-0.9-1.2-1.8c0-6.7,0.1-13.5,0-20.2C231.9,118.5,232.7,118.4,234.2,118.3z"/>
	<path d="M274.8,154.2c7.3,0.1,14.7,0.1,22,0c4.8,0,7-2.3,7-7.2c0-5.6,0-11.2,0-16.8s0-11.2,0-16.8c0-4.9-2.2-7.1-7.1-7.1
		c-7.2,0-14.4,0-21.7,0c-4.9,0-7.2,2.2-7.2,7c0,11.3,0,22.7,0,34C268,151.9,270.2,154.2,274.8,154.2z M279.9,130c0-1,0-2,0-3
		c0-9.4,0.8-10,10.4-8.7c1.4,0.2,1.5,0.8,1.5,1.9c0,6.7,0,13.5,0,20.2c0,1.4-0.4,1.8-1.9,2c-10.1,0.9-10.1,0.9-10.1-9
		C279.9,132.2,279.9,131.1,279.9,130z"/>
	<path d="M322.7,154.2c7.3,0.1,14.7,0.1,22,0c4.6,0,6.9-2.2,6.9-6.8c0.1-5.7,0-11.5,0-17.2c0-5.7,0.1-11.5,0-17.2
		c-0.1-4.4-2.3-6.6-6.7-6.7c-7.5-0.1-14.9-0.1-22.4,0c-4.4,0-6.7,2.3-6.7,6.6c-0.1,11.5-0.1,22.9,0,34.4
		C315.8,152,318.1,154.2,322.7,154.2z M327.8,120.2c0-1.4,0.4-2.1,1.9-1.9c0.1,0,0.2,0,0.4,0c9.7-0.5,9.7-0.5,9.7,9.3c0,1,0,2,0,3
		c0,0.9,0,1.7,0,2.6c0,9.9,0,9.9-10.1,9c-1.4-0.1-1.9-0.4-1.9-1.9C327.8,133.7,327.8,126.9,327.8,120.2z"/>
	<path d="M255.9,293.1c0-4.9-2.2-7.1-7-7.2c-7.3,0-14.7-0.1-22,0c-4.6,0-6.9,2.3-6.9,6.9c0,11.3,0,22.7,0,34c0,4.8,2.3,7,7.2,7
		c7.2,0,14.4,0,21.7,0c4.8,0,7-2.2,7.1-7.1c0-5.6,0-11.2,0-16.8C255.9,304.3,256,298.7,255.9,293.1z M244,310.2c0,0.9,0,1.7,0,2.6
		c0,9.1,0,9-9,9.1c-2.4,0-3.1-0.6-3.1-3c0.2-6.1,0.1-12.2,0-18.3c0-2.1,0.5-2.7,2.7-2.7c9.4-0.1,9.4-0.2,9.4,9
		C244,308,244,309.1,244,310.2z"/>
	<path d="M297,285.9c-7.3-0.1-14.7-0.1-22,0c-4.8,0-7,2.2-7,7.1c0,5.6,0,11.2,0,16.8c0,5.7-0.1,11.5,0,17.2c0.1,4.4,2.3,6.7,6.7,6.7
		c7.5,0.1,14.9,0.1,22.4,0c4.6,0,6.8-2.3,6.8-7c0-11.3,0-22.7,0-34C303.8,288.2,301.6,286,297,285.9z M289.8,321.9
		c-9.9,0.5-9.9,0.6-9.9-9.2c0-4.2,0.1-8.5,0-12.7c0-1.7,0.5-2,2.1-2.1c9.9-0.5,9.9-0.6,9.9,9.2c0,1,0,2,0,3c0,3.2-0.1,6.5,0,9.7
		C292,321.5,291.4,321.8,289.8,321.9z"/>
	<path d="M351.7,293c0-4.8-2.2-7-7.1-7.1c-7.2,0-14.4,0-21.7,0c-4.9,0-7.1,2.2-7.1,7c0,11.3,0,22.7,0,34c0,4.6,2.3,6.8,6.9,6.9
		c7.3,0.1,14.7,0.1,22,0c4.8,0,6.9-2.3,7-7.2c0-5.6,0-11.2,0-16.8C351.7,304.2,351.8,298.6,351.7,293z M339.8,320
		c0,1.4-0.4,2.1-1.9,1.9c-0.1,0-0.2,0-0.4,0c-9.7,0.5-9.7,0.5-9.7-9.3c0-0.9,0-1.7,0-2.6c0-1,0-2,0-3c0-9.9,0-9.9,10.1-9
		c1.4,0.1,1.9,0.4,1.9,1.9C339.7,306.5,339.7,313.2,339.8,320z"/>
	<path d="M297.4,226.1c-7.6-0.1-15.2-0.1-22.8,0c-4.4,0-6.6,2.3-6.6,6.7c-0.1,5.6,0,11.2,0,16.8c0,6-0.1,12,0,17.9
		c0.1,4,2.3,6.3,6.2,6.4c7.7,0.1,15.4,0.1,23.2,0c4.1,0,6.4-2.4,6.5-6.5c0.1-11.6,0.1-23.2,0-34.7
		C303.8,228.5,301.5,226.1,297.4,226.1z M291.9,250.3c0,1,0,2,0,3c0,9.4-0.8,10-10.4,8.7c-1.4-0.2-1.6-0.7-1.6-1.9
		c0-6.7,0.1-13.5,0-20.2c0-1.8,0.8-1.9,2.2-2c9.8-0.5,9.8-0.5,9.8,9.3C291.9,248.3,291.9,249.3,291.9,250.3z"/>
	<path d="M172.2,207.1c0,4.7,2.2,7,6.8,7c7.5,0.1,14.9,0.1,22.4,0c4.4,0,6.7-2.3,6.7-6.7c0.1-11.5,0.1-22.9,0-34.4
		c0-4.6-2.3-6.8-6.9-6.8c-7.3,0-14.7-0.1-22,0c-4.6,0-6.9,2.2-6.9,6.9c-0.1,5.7,0,11.5,0,17.2C172.1,195.9,172.1,201.5,172.2,207.1z
		 M184.1,189.8c0-0.9,0-1.7,0-2.6c0-9.9,0-9.9,10.1-9c1.4,0.1,1.9,0.4,1.9,1.9c-0.1,6.7-0.1,13.5,0,20.2c0,1.4-0.4,2.1-1.9,1.9
		c-0.1,0-0.2,0-0.4,0c-9.7,0.5-9.7,0.5-9.7-9.3C184.1,191.8,184.1,190.8,184.1,189.8z"/>
	<path d="M220,207.2c0,4.6,2.3,6.8,6.9,6.9c7.3,0.1,14.7,0.1,22,0c4.6,0,6.9-2.2,6.9-6.8c0.1-11.3,0-22.7,0-34c0-4.8-2.2-7-7.1-7
		c-7.2,0-14.4,0-21.7,0c-4.9,0-7.1,2.2-7.1,7c0,5.6,0,11.2,0,16.8C220,195.8,220,201.5,220,207.2z M233.9,178.2c0.1,0,0.2,0,0.4,0
		c9.7-0.5,9.7-0.5,9.7,9.4c0,0.9,0,1.7,0,2.6c0,1,0,2,0,3c0,9.9,0,9.9-10.1,9c-1.4-0.1-1.9-0.5-1.9-1.9c0.1-6.7,0.1-13.5,0-20.2
		C232,178.6,232.4,178,233.9,178.2z"/>
	<path d="M267.9,207.3c0.1,4.4,2.3,6.7,6.6,6.7c7.5,0.1,14.9,0.1,22.4,0c4.6,0,6.8-2.3,6.8-6.9c0-11.3,0-22.7,0-34
		c0-4.6-2.2-6.9-6.8-6.9c-7.3-0.1-14.7-0.1-22,0c-4.8,0-7,2.2-7,7.1c0,5.6,0,11.2,0,16.8C267.9,195.9,267.9,201.6,267.9,207.3z
		 M279.9,190.2c0-1,0-2,0-3c0-9.9,0-9.9,10.1-9c1.4,0.1,1.9,0.5,1.9,1.9c-0.1,6.7-0.1,13.5,0,20.2c0,1.5-0.4,2.1-1.9,1.9
		c-0.1,0-0.2,0-0.4,0c-9.7,0.5-9.7,0.5-9.7-9.4C279.9,191.9,279.9,191,279.9,190.2z"/>
	<path d="M345.3,166.2c-7.6-0.1-15.2-0.1-22.8,0c-4.4,0-6.6,2.3-6.6,6.7c-0.1,5.6,0,11.2,0,16.8c0,6-0.1,12,0,17.9
		c0.1,4,2.3,6.3,6.2,6.4c7.7,0.1,15.4,0.1,23.2,0c4.1,0,6.4-2.4,6.5-6.5c0.1-11.6,0.1-23.2,0-34.7
		C351.7,168.6,349.4,166.3,345.3,166.2z M339.8,190.2c0,1,0,2,0,3c0,9.9,0,9.9-10.1,9c-1.4-0.1-1.9-0.5-1.9-1.9
		c0.1-6.7,0.1-13.5,0-20.2c0-1.5,0.5-2.1,1.9-1.9c0.1,0,0.2,0,0.4,0c9.7-0.5,9.7-0.5,9.7,9.4C339.8,188.4,339.8,189.3,339.8,190.2z"
		/>
	<path d="M179,273.9c7.3,0.1,14.7,0.1,22,0c4.8,0,7-2.2,7-7.1c0-5.6,0-11.2,0-16.8c0-5.7,0.1-11.5,0-17.2c-0.1-4.4-2.3-6.7-6.7-6.7
		c-7.5-0.1-14.9-0.1-22.4,0c-4.6,0-6.8,2.3-6.8,6.9c0,11.3,0,22.7,0,34C172.2,271.7,174.4,273.9,179,273.9z M184.1,249.7
		c0-0.9,0-1.7,0-2.6c0-9.1,0-9,8.9-9.1c2.4,0,3.2,0.5,3.1,3c-0.2,6.2-0.1,12.5,0,18.7c0,1.8-0.4,2.3-2.3,2.3
		c-9.8,0.4-9.8,0.4-9.8-9.4C184.1,251.7,184.1,250.7,184.1,249.7z"/>
	<path d="M249,226.1c-7.3-0.1-14.7-0.1-22,0c-4.7,0-6.9,2.2-6.9,6.8c-0.1,5.6,0,11.2,0,16.8c0,5.9-0.1,11.7,0,17.6
		c0.1,4.4,2.3,6.6,6.7,6.7c7.5,0.1,14.9,0.1,22.4,0c4.4,0,6.7-2.3,6.7-6.7c0.1-11.5,0.1-22.9,0-34.4
		C255.9,228.3,253.6,226.1,249,226.1z M241.5,262c-9.5,0.2-9.5,0.2-9.5-9.3c0-4,0.1-8,0-12c-0.1-1.9,0.2-2.8,2.5-2.8
		c9.5-0.1,9.5-0.2,9.5,9.3c0,1,0,2,0,3c0,3.1-0.1,6.2,0,9.3C244.1,261.7,243.3,262,241.5,262z"/>
	<path d="M351.7,232.9c0-4.6-2.3-6.8-6.9-6.9c-7.3-0.1-14.7-0.1-22,0c-4.7,0-6.9,2.2-6.9,6.8c-0.1,11.3,0,22.7,0,34
		c0,4.8,2.2,7,7.1,7.1c7.2,0,14.4,0,21.7,0c4.9,0,7.1-2.2,7.1-7c0.1-5.6,0-11.2,0-16.8C351.7,244.4,351.8,238.7,351.7,232.9z
		 M337.2,262.1c-9.5,0.1-9.5,0.2-9.5-9.3c0-4,0.1-8,0-12c-0.1-2,0.3-2.8,2.6-2.8c9.5-0.1,9.5-0.2,9.5,9.3c0,1,0,2,0,3c0,3-0.1,6,0,9
		C339.9,261.2,339.5,262,337.2,262.1z"/>
	<path d="M201.6,286c-7.6-0.1-15.2-0.1-22.8,0c-4.4,0-6.6,2.3-6.6,6.7c-0.1,5.6,0,11.2,0,16.8c0,6-0.1,12,0,17.9
		c0.1,4,2.3,6.3,6.3,6.4c7.7,0.1,15.4,0.1,23.2,0c4.1,0,6.4-2.4,6.5-6.6c0.1-11.6,0.1-23.2,0-34.7C208,288.3,205.7,286,201.6,286z
		 M196.1,309.9c0,1,0,2,0,3c0,9.9,0,9.9-10.1,9c-1.5-0.1-1.9-0.5-1.9-2c0.1-6.7,0.1-13.5,0-20.2c0-1.5,0.5-2,1.9-1.8
		c0.1,0,0.2,0,0.4,0c9.7-0.4,9.7-0.4,9.7,9C196.1,307.9,196.1,308.9,196.1,309.9z"/>
</g>
</svg>
