<?xml version="1.0" encoding="utf-8"?>
<!-- Generator: Adobe Illustrator 28.2.0, SVG Export Plug-In . SVG Version: 6.00 Build 0)  -->
<svg version="1.1" id="Layer_1" xmlns="http://www.w3.org/2000/svg" xmlns:xlink="http://www.w3.org/1999/xlink" x="0px" y="0px"
	 viewBox="0 0 512 512" style="enable-background:new 0 0 512 512;" xml:space="preserve">
<style type="text/css">
	.st0{opacity:0.93;fill:none;}
</style>
<rect class="st0" width="512" height="512"/>
<g>
	<path d="M420.4,399.3c0-8.2-0.1-8.4-8.3-8.8c-2.3-0.1-3.3-0.9-3.3-3.2c0.1-3.8,0.1-7.7,0-11.5c-0.1-4.4-1.2-5.8-5.5-6.3
		c-2-0.3-2.8-1.2-2.8-3.1c0-1,0-1.9,0-2.9c0-70.4,0-140.8,0-211.2c0-1,0-1.9,0-2.9c-0.1-2.2,0.9-3.2,3.1-3.1
		c5.2,0.3,7.1-3.4,7.1-7.5c0.1-4.3,0-8.5,0-12.8c0-8.8-1.8-10.5-10.5-10.5c-17.3,0-34.6,0-51.9,0c-3.9,0-4.2-0.3-4.2-4.2
		c0-4.6,0.1-9.2-0.1-13.8c-0.2-4.4-1.6-5.7-5.9-5.7c-8.7,0-17.3,0-26,0c-4.6,0-5.8,1.2-5.9,6c-0.1,4.7,0,9.4,0,14.1
		c0,3.3-0.5,3.6-3.8,3.6c-3.4,0-3.8-0.4-3.9-3.5c-0.1-4.7,0.2-9.4-0.1-14.1c-0.3-4.5-2-6-6.5-6c-8.5,0-17.1,0-25.6,0
		c-4.7,0-6.1,1.3-6.2,6.1c-0.1,3.8,0,7.7,0,11.5c0,6,0,6.1-5.9,6.1c-16.5,0-32.9,0-49.4,0c-1.5,0-3-0.1-4.5,0.1
		c-4.5,0.5-6.2,2.3-6.3,6.9c-0.1,5.8-0.1,11.5,0,17.3c0.1,4.6,1.5,6.2,6.1,6.4c2.6,0.1,3.5,1.2,3.5,3.7c-0.1,12,0,23.9,0,35.9
		c0,2.9-0.2,3-2.8,1.5c-11-6-22.3-6.9-34-2.5c-16.9,6.3-26.2,23.7-21.9,40.7c1.4,5.8-0.4,7.6-6.1,6.2c-20.7-5.1-41.2,11.8-36.5,33.5
		c0.4,1.7,0.1,3.1-0.8,4.6c-4.5,7.7-6.2,15.9-3.7,24.6c0.4,1.4,0.6,2.8-0.2,4.1c-3.8,5.9-5.6,12.4-5.8,19.3c0,1.1,0,2.1,0,3.2
		c0.8,3.9,0.8,8,2.6,11.7c5.6,11.8,14.9,18.9,27.4,22.2c4.4,1.1,4.3,1.1,4.4,5.5c0.2,8.5-0.5,17.1,0.4,25.6c0.5,4.1,0.1,4.6-4.1,4.6
		c-8.3,0-16.6,0-25,0c-2.6,0-5,0.4-5.7,3.5c0,7.9,0,15.8,0,23.7c0.9,0.9,1.7,1.7,2.6,2.6c107.7,0,215.4,0,323.2,0
		c2.3-0.5,2.9-2.2,2.9-4.3C420.3,410.4,420.4,404.8,420.4,399.3z M315.1,102.2c0-1.6,0.5-2,2-2c2.8,0.1,5.5,0,8.3,0
		c0,0.1,0,0.2,0,0.2c3.1,0,7.1-1.2,8.9,0.3c1.9,1.6,0.5,5.8,0.6,8.8c0.1,6.9,0,6.9-6.9,6.9c-3.5,0-7-0.1-10.5,0
		c-1.7,0.1-2.5-0.3-2.4-2.3C315.3,110.3,315.2,106.2,315.1,102.2z M271.1,100.2c5.3,0.1,10.7,0.1,16,0c1.4,0,2.1,0.2,2.1,1.9
		c-0.1,4.2-0.1,8.3,0,12.5c0,1.6-0.6,2-2,2c-2.7-0.1-5.3,0-8,0s-5.3-0.1-8,0c-1.4,0-1.9-0.3-1.8-1.8c0.1-4.3,0.1-8.5,0-12.8
		C269.2,100.6,269.7,100.2,271.1,100.2z M202.9,133.9c0.2-2.3,0.1-4.7,0-7c-0.1-1.7,0.6-2.3,2.2-2.1c0.5,0.1,1.1,0,1.6,0
		c63.7,0,127.3,0,191-0.1c2.8,0,4.1,0.6,3.7,3.6c-0.3,2-0.2,4.1,0,6.1c0.2,2.3-0.7,2.8-2.9,2.8c-20.8-0.1-41.7,0-62.5,0
		c-11.2,0-22.4,0-33.6,0c-32,0-64.1,0-96.1,0.1C203.7,137.2,202.6,136.6,202.9,133.9z M399.8,388.4c0.3,2.7-0.8,3-3.2,3
		c-31.5-0.1-63,0-94.5,0c-31.4,0-62.8,0-94.2,0.1c-2.9,0-3.6-0.8-3.4-3.5c0.2-2.6,0.1-5.3,0-8c0-1.4,0.5-2,1.9-1.8
		c0.6,0.1,1.3,0,1.9,0c62.6,0,125.2,0,187.7-0.1c2.8,0,4.1,0.5,3.7,3.6C399.5,383.9,399.5,386.2,399.8,388.4z M196.3,388.8
		c0.1,2.2-0.6,2.8-2.7,2.5c-2.6-0.3-6.1,1.2-7.6-0.6c-1.3-1.5-0.5-4.9-0.5-7.4c-0.1-12.9-0.1-25.8-0.1-38.7c0-1.1-0.7-2.7,1.4-2.9
		c6.2-0.6,12-2.4,18.1-5.1c0,7.6,0,14.9,0,22.1c0,1.9,0,3.8,0,5.8c0,4.9,0,4.9-4.9,5.6c-2.7,0.4-3.8,2.1-3.8,4.7
		C196.3,379.5,196.2,384.2,196.3,388.8z M213.1,333.5c0-1.5,0.4-2.5,1.5-3.6c18.7-16.7,21.7-39.5,7.8-60.3c-1-1.5-0.9-2.6-0.4-4.1
		c4-11.8,2.4-22.9-4.4-33.3c-1.4-2.1-1.9-3.8-1.1-6.4c2.5-8,1.7-15.8-2.2-23.3c-1-1.9-1.3-3.7-1.3-5.8c0.1-16.1,0.1-32.3,0-48.4
		c0-2.4,0.5-3.2,3.1-3.2c57.4,0.1,114.8,0.1,172.1,0c2.5,0,2.9,0.8,2.9,3.1c-0.1,36.5-0.1,73.1-0.1,109.6c0,36.2,0,72.4,0.1,108.7
		c0,2.8-0.6,3.5-3.5,3.5c-11.8-0.2-23.5-0.2-35.3,0c-2.5,0-3-0.7-3-3.1c0.1-24.5,0.1-48.9,0.1-73.4c0-5.3-0.9-6.2-6.1-6.2
		c-27.4,0-54.7,0-82.1,0c-5,0-6.1,1.2-6.1,6.3c0,24.4,0,48.7,0.1,73.1c0,2.7-0.7,3.4-3.3,3.3c-12-0.2-23.9-0.1-35.9,0
		c-2.2,0-3.2-0.3-3.1-2.9C213.2,355.9,213.1,344.7,213.1,333.5z M341.4,333c0,11.4,0,22.8,0,34.3c0,2-0.4,2.8-2.6,2.8
		c-9.9-0.1-19.9-0.1-29.8,0c-2,0-2.5-0.6-2.5-2.5c0.1-23.2,0.1-46.3,0-69.5c0-2.3,0.8-2.6,2.8-2.6c9.8,0.1,19.6,0.1,29.5,0
		c2.1,0,2.7,0.6,2.7,2.7C341.3,309.8,341.4,321.4,341.4,333z M263.6,332.5c0-11.3,0.1-22.6-0.1-34c0-2.6,0.8-3.1,3.2-3.1
		c9.7,0.1,19.4,0.1,29.1,0c2,0,2.5,0.5,2.5,2.5c-0.1,23.2-0.1,46.3,0,69.5c0,2.2-0.8,2.6-2.7,2.6c-9.8-0.1-19.6-0.1-29.5,0
		c-2.1,0-2.7-0.6-2.6-2.7C263.7,355.8,263.6,344.1,263.6,332.5z M146.5,275c3-3.9,3.9-7.1,1.9-12.1c-3.9-9.8-2-19.4,4.4-27.7
		c2.5-3.2,3.2-5.8,1.6-9.8c-5-12.4,1.8-26.2,15.2-32c13.1-5.7,29.1-0.8,36.5,11.4c4.2,6.9,4.8,14.3,1.6,21.7c-1.2,2.8-1,4.9,0.9,7.3
		c7.9,9.9,9.6,20.6,4.3,32.3c-1.4,2.9,0.1,4.8,1.8,6.9c9.2,11.4,10.8,27.3,3.6,39.9c-6.9,12-17.6,18.5-31.1,20.6
		c-1.4,0.2-1.8-0.1-1.8-1.6c0.1-5.7,0.1-11.3,0-17c0-1.4,0.8-2.1,1.6-2.9c4-4,8-8,12-12c2.5-2.6,2.8-4.7,1-6.7
		c-1.9-1.9-4.1-1.7-6.7,0.8c-2.5,2.5-4.9,5-7.3,7.6c-0.2-0.1-0.5-0.3-0.7-0.4c0-4.9,0-9.8,0-14.7c0-3.4-1.6-5.4-4.1-5.5
		c-2.5,0-4.1,2-4.2,5.4c0,4.7,0,9.4,0,14.8c-2.7-2.7-5.1-5-7.4-7.4c-1.3-1.2-2.6-2.3-4.5-1.8c-3.3,0.8-4.2,4.6-1.6,7.3
		c3.8,4,7.8,7.9,11.8,11.8c1.2,1.2,1.9,2.4,1.8,4.1c-0.1,5.4-0.1,10.9,0,16.3c0,1.6-0.4,1.9-2,1.7c-17.7-2.2-32.1-15.3-35-32.4
		C138.6,291.6,140.7,282.7,146.5,275z M135.4,356.7c0-1.5,0.5-2.1,1.9-2.3c10.2-1.5,18.8-6.1,25.3-14.3c1-1.2,2-1,3.1-0.6
		c3,0.9,5.9,1.8,9.1,1.9c2,0.1,2.7,0.9,2.6,3c-0.1,7.5-0.1,15-0.1,22.4c0.1,0,0.2,0,0.2,0c0,7.3-0.1,14.5,0,21.8
		c0,1.9-0.2,2.8-2.5,2.8c-12.4-0.1-24.8-0.1-37.2,0c-1.8,0-2.4-0.5-2.4-2.3C135.5,378.3,135.5,367.5,135.4,356.7z M101.7,325.7
		c-2.5-8.1-1.1-15.9,4.1-22.7c2.4-3.1,3-5.8,1.5-9.6c-3-7.3-1.6-14.3,3.1-20.5c1.8-2.3,3-4.4,1.6-7.5c-5-11.6,3.5-23.5,15.7-25.3
		c3.5-0.5,7-0.3,10.4,0.8c1.6,0.5,2,1.2,1.6,2.7c-2.2,7.6-1.8,15.2,1,22.6c0.7,1.9-0.3,2.8-1.1,4c-7.4,10.9-10,22.7-6.9,35.6
		c2.9,12,9.9,21.1,20.2,27.7c2.2,1.4,2.8,2.2,0.6,4.2c-4.7,4.3-10,7.1-16.3,8.3c-1.7,0.3-2,0-2-1.6c0.1-4.9,0-9.8,0-14.7
		c0-3.5-1.5-5.3-4.2-5.2c-2.5,0.1-4,1.8-4,5.1c-0.1,5.5,0,11.1,0,16.8C114.6,344.2,105.5,338.1,101.7,325.7z M411.2,411.4
		c-1.6,1.8-5.6,0.5-8.6,0.5c-99.7,0-199.4,0-299.1,0.1c-2.8,0-4-0.5-3.7-3.5c0.3-2.8-0.9-6.6,0.6-8.3c1.5-1.8,5.4-0.5,8.3-0.5
		c49.1,0,98.3,0,147.4,0c50.7,0,101.5,0,152.2-0.1c2.6,0,3.6,0.4,3.3,3.2C411.5,405.7,412.7,409.7,411.2,411.4z"/>
	<path d="M91.8,417.7c-0.5,2.2,0.4,3,2.6,2.6C92.9,419.9,92.1,419.1,91.8,417.7z"/>
	<path d="M259.7,212.6c8,0,16,0,24,0c3.8,0,5.1-1.3,5.2-5.2c0.1-5.5,0-11.1,0-16.7c0-5.8,0.1-11.5,0-17.3c0-3.7-1.5-5.1-5-5.1
		c-8.1-0.1-16.2-0.1-24.3,0c-3.4,0-4.9,1.6-4.9,5c0,11.4,0,22.8,0,34.3C254.6,211.1,256.1,212.5,259.7,212.6z M265.1,176.5
		c4.5,0.1,9,0.1,13.4,0c1.9-0.1,2.3,0.6,2.3,2.4c-0.1,7.8-0.1,15.6,0,23.3c0,1.6-0.4,2.3-2.1,2.2c-4.6-0.1-9.2-0.1-13.7,0
		c-1.8,0.1-2.1-0.7-2-2.2c0.1-3.9,0-7.9,0-11.8c0-3.8,0.1-7.7,0-11.5C262.8,177.2,263.1,176.4,265.1,176.5z"/>
	<path d="M319.9,212.6c7.9,0,15.8,0,23.7,0c3.9,0,5.2-1.4,5.3-5.2c0-5.7,0-11.3,0-17c0-5.6,0-11.1,0-16.7c0-4-1.4-5.5-5.3-5.5
		c-7.9,0-15.8,0-23.7,0c-3.8,0-5.2,1.4-5.2,5.2c-0.1,11.3-0.1,22.6,0,33.9C314.7,211.3,316,212.6,319.9,212.6z M322.7,178.7
		c0-1.6,0.4-2.2,2.1-2.2c4.6,0.1,9.2,0.1,13.7,0c1.8-0.1,2.1,0.6,2,2.2c-0.1,3.9,0,7.9,0,11.8c0,3.8-0.1,7.7,0,11.5
		c0,1.7-0.2,2.5-2.2,2.4c-4.5-0.1-9-0.1-13.4,0c-1.9,0.1-2.3-0.6-2.3-2.4C322.8,194.3,322.8,186.5,322.7,178.7z"/>
	<path d="M283.8,227.8c-7.9,0-15.8,0-23.7,0c-4.2,0-5.4,1.3-5.4,5.6c0,5.4,0,10.9,0,16.3c0,5.7,0,11.3,0,17c0,3.8,1.4,5.3,5.1,5.4
		c8,0.1,16,0.1,24,0c3.6,0,5.1-1.4,5.1-5.1c0.1-11.4,0.1-22.8,0-34.3C288.8,229.1,287.4,227.8,283.8,227.8z M280.8,261.6
		c0,1.6-0.3,2.3-2.1,2.3c-4.6-0.1-9.2-0.1-13.8,0c-1.7,0-2.1-0.5-2.1-2.2c0.1-3.9,0-7.9,0-11.8c0-3.9,0.1-7.9,0-11.8
		c0-1.7,0.5-2.2,2.1-2.1c4.5,0.1,9,0.1,13.4,0c1.8,0,2.4,0.6,2.3,2.4C280.7,246,280.7,253.8,280.8,261.6z"/>
	<path d="M348.9,232.8c0-3.6-1.4-5-5-5.1c-8-0.1-16,0-24,0c-3.9,0-5.2,1.3-5.2,5.2c-0.1,11.3-0.1,22.6,0,33.9c0,3.8,1.5,5.1,5.3,5.1
		c7.9,0,15.8,0,23.7,0c3.7,0,5.2-1.5,5.2-5.3c0-5.7,0-11.3,0-17S348.9,238.5,348.9,232.8z M340.6,249.8c0,3.9-0.1,7.9,0,11.8
		c0,1.6-0.3,2.3-2.1,2.2c-4.6-0.1-9.2-0.1-13.8,0c-1.7,0-2.1-0.6-2.1-2.2c0.1-7.8,0.1-15.6,0-23.4c0-1.8,0.4-2.5,2.3-2.4
		c4.5,0.1,9,0.1,13.4,0c1.6,0,2.2,0.4,2.2,2.1C340.5,241.9,340.6,245.9,340.6,249.8z"/>
</g>
</svg>
