<?xml version="1.0" encoding="utf-8"?>
<!-- Generator: Adobe Illustrator 28.2.0, SVG Export Plug-In . SVG Version: 6.00 Build 0)  -->
<svg version="1.1" id="Layer_1" xmlns="http://www.w3.org/2000/svg" xmlns:xlink="http://www.w3.org/1999/xlink" x="0px" y="0px"
	 viewBox="0 0 512 512" style="enable-background:new 0 0 512 512;" xml:space="preserve">
<style type="text/css">
	.st0{opacity:0.93;fill:none;}
</style>
<rect class="st0" width="512" height="512"/>
<g>
	<path d="M447.8,416.4c0-2.8-1.1-3.8-3.7-4c-4.1-0.2-8.2,0-12.3-0.1c-5.4-0.1-5.6-0.3-5.6-5.8c0-85.4,0-170.7,0-256.1
		c0-5.5,0-5.5,5.6-5.7c5.5-0.2,6.3-0.9,6.3-6.4c0.1-23.1,0-46.1,0-69.2c0-1.7,0.1-3.5-1.2-5c-120.5,0-240.9,0-361.4,0
		c-1.6,1.9-1.2,4.2-1.2,6.4c0,22.1,0,44.1,0,66.2c0,1.2,0,2.5,0.1,3.7c0.1,2.5,1.4,3.9,4,4.1c1,0.1,2,0.1,3,0.1
		c2.3,0,3.5,1.1,3.4,3.4c0,1.1,0,2.2,0,3.4c0,10.7,0,21.4,0,32.2c0,1.7-0.3,3.8,1.3,4.8c3.1,1.8,6.6,1.4,9.8,0.6
		c2.9-0.7,2.4-3.5,2.4-5.6c0.1-10.7,0-21.4,0-32.2c0-6.6,0-6.6,6.7-6.6c100.3,0,200.5,0,300.8,0c6.7,0,6.7,0,6.7,6.5
		c0,84.8,0,169.5,0,254.3c0,1.5,0.1,3-0.2,4.5c-0.2,1.1-0.6,1.8-1.8,2.1c-5,1.6-7.6-0.2-7.6-5.4c0-14.8,0-29.7,0-44.5
		c0-5-1-5.9-5.9-6c-0.7,0-1.5,0-2.2,0c-4.4,0.2-5.3,1-5.4,5.3c-0.1,5,0,10,0,15c0,10.5,0,20.9,0,31.4c0,2.5-0.4,4.4-3.6,4.4
		c-7.9,0-15.7,0-23.6,0c-2.4,0-3.4-1.1-3.4-3.4c0-3.9,0-7.7,0-11.6c0-4.5,0.3-4.7,4.9-5c4.6-0.3,5.5-1,5.5-5.6c0.1-12.3,0-24.7,0-37
		c0-3.5-1.4-5.9-4.4-7.6c-4.4-2.5-8.6-5.5-13.1-7.9c-4.6-2.5-7.8-6-10.4-10.4c-7.5-12.5-15.3-24.8-23-37.2c-1.8-3-4.2-4.3-7.7-4.3
		c-36.5,0-73.1,0-109.6,0c-3.3,0-5.7,1.3-7.4,4.1c-8.1,12.7-16.6,25.2-24.6,38c-2.3,3.7-5,6.7-8.9,8.8c-4.7,2.6-9.1,5.7-13.8,8.3
		c-3.5,1.9-4.8,4.6-4.7,8.5c0.1,11.3,0,22.7,0,34c0,6.7-0.2,8.7,7.7,8.4c2.6-0.1,3.5,1.3,3.5,3.7c0,4,0.1,8,0,12
		c-0.1,3.9-0.4,4.3-4.4,4.3c-7,0.1-14,0-20.9,0c-5.8,0-5.9-0.2-5.9-5.8c0-48.2,0-96.5,0-144.7c0-5.5,0.2-5.7,5.7-5.7
		c85.4,0,170.8,0,256.2,0c5.7,0,5.8,0.1,5.8,5.9c0,25.6,0,51.1,0,76.7c0,1.6,0,3.2,0.1,4.9c0.2,2.2,1.3,3.3,3.5,3.7
		c8,1.4,10-0.2,10-8.2c0-43.8,0-87.5,0-131.3c0-8.6-0.1-8.7-8.8-8.7c-92.4,0-184.8,0-277.2,0c-8.8,0-8.9,0.1-8.9,9
		c0,65.6,0,131.1,0,196.7c0,1.6,0.1,3.2-0.1,4.9c-0.1,1.2-0.5,2-1.9,2.4c-5.1,1.5-7.6-0.3-7.6-5.5c0-1.2,0-2.5,0-3.7
		c0-65.7,0-131.4,0-197.1c0-6.7-0.7-7.4-6.7-7.4c-6.1,0-6.8,0.7-6.9,6.9c0,1.2,0,2.5,0,3.7c0,65.1,0,130.1,0,195.2
		c0,1.4-0.1,2.7,0,4.1c0.1,2.8-1,4.1-3.9,4c-3.7-0.1-7.5-0.1-11.2,0c-1.9,0-3.8-0.2-5.3,1.2c0,11.2,0,22.4,0,33.7
		c1.4,0.7,2.9,0.3,4.4,0.3c124.6,0,249.1,0,373.7,0c0.7,0,1.5-0.1,2.2,0c2.5,0.3,3.2-0.8,3.2-3.2
		C447.6,435.1,447.6,425.8,447.8,416.4z M86.7,106.1c0.3-8.7,0.3-17.5,0-26.2c-0.1-3.5,0.6-4.5,4.4-4.5
		c55.1,0.1,110.2,0.1,165.3,0.1s110.2,0,165.3-0.1c3,0,4,0.5,3.9,3.8c-0.3,8.6-0.1,17.2-0.1,25.8c0,5,0,5-4.8,5c-58,0-116,0-173.9,0
		c-52,0-104,0-156,0.1C87.8,110.1,86.6,109.6,86.7,106.1z M91.2,132.6c-3.6,0-4.6-0.8-4.4-4.5c0.3-6.9,0.1-6.9,7.2-6.9
		c54.1,0,108.2,0,162.3,0c55.1,0,110.2,0,165.3-0.1c3.5,0,4.3,0.9,4.2,4.3c-0.3,7.1-0.1,7.1-7.3,7.1
		C309.3,132.5,200.2,132.5,91.2,132.6z M153.9,353.6c0-1.8,0.6-2.8,2.1-3.5c0.1-0.1,0.2-0.1,0.3-0.2c9.9-8.1,21.2-10.2,33.9-9.9
		c31.6,0.8,63.3,0.2,95,0.3c3.4,0,4.1-0.9,4-4.1c-0.2-7.2-0.1-7.2-7.2-7.2c-32.3,0-64.6,0-96.9,0c-1.3,0-2.7,0-4.6,0
		c7.3-11.2,14.2-21.7,21-32.2c0.9-1.4,2-1.9,3.6-1.9c33.8,0,67.6,0,101.4,0c1.5,0,2.5,0.3,3.4,1.7c6.5,10.7,13.2,21.3,20.1,32.5
		c-9,0-17.6,0.1-26.1-0.1c-2.7-0.1-3.6,0.5-3.5,3.4c0.2,7.9,0,7.9,7.9,7.9c9,0,18,0,26.9,0c1.8,0,3.3,0.4,4.9,1.3
		c4.7,3,9.5,5.9,14.3,8.7c1.5,0.9,2.3,1.9,2.3,3.8c-0.1,7.7-0.2,15.5,0,23.2c0.1,2.5-0.8,2.8-3,2.8c-65.7-0.1-131.4-0.1-197.1,0
		c-2,0-2.8-0.4-2.8-2.6C154.1,369.6,154,361.6,153.9,353.6z M346.1,402.9c0,2.9-0.1,5.7,0,8.6c0.1,1.6-0.4,2.2-2.1,2.2
		c-6.2-0.1-12.4-0.1-18.7,0c-1.6,0-1.8-0.7-1.8-2c0-6.1,0.1-12.2,0-18.3c0-1.7,0.7-2.1,2.3-2.1c6,0.1,12,0.1,17.9,0
		c2.1,0,2.5,0.9,2.4,2.7C346,397,346.1,400,346.1,402.9z M199.1,394.3c-0.1-2.2,0.5-3,2.9-3c35.8,0.1,71.6,0.1,107.3,0
		c2.2,0,3.1,0.5,3,2.9c-0.2,5.5-0.2,11,0,16.4c0.1,2.9-1.1,3.1-3.4,3.1c-17.8-0.1-35.7,0-53.5,0c-17.5,0-34.9-0.1-52.4,0.1
		c-3.5,0-4.2-1-4-4.2C199.3,404.5,199.2,399.4,199.1,394.3z M165.4,402.4c-0.1-2.4,0.2-4.8-0.1-7.1c-0.3-3,0.5-4.2,3.8-4
		c5.5,0.3,11,0.1,16.4,0c1.7,0,2.4,0.5,2.4,2.3c-0.1,6-0.1,12,0,17.9c0,2-0.8,2.2-2.4,2.2c-3-0.1-6,0-9,0c0-0.1,0-0.2,0-0.3
		c-3.6,0-8.5,1.4-10.4-0.4C163.8,411,165.6,406,165.4,402.4z M120.4,217.5c0.3-6.1,0.1-6.1,6.1-6.1c86.6,0,173.2,0,259.9-0.1
		c3.4,0,4.7,0.9,4.1,4.3c-0.1,0.6-0.1,1.3,0,1.9c0.6,3.2-0.6,4.1-3.9,4.1c-43.7-0.1-87.5-0.1-131.2-0.1c-43.6,0-87.2,0-130.9,0.1
		C121.1,221.6,120.2,220.8,120.4,217.5z M120.4,239.6c0.3-6.8,0.1-6.8,6.9-6.8c42.9,0,85.7,0,128.6,0c43.4,0,86.7,0,130.1-0.1
		c3.5,0,4.7,0.6,4.6,4.4c-0.4,6.9-0.1,6.9-7.1,6.9c-86.2,0-172.5,0-258.7,0.1C121,244.1,120.2,243.1,120.4,239.6z M436.2,428.9
		c-0.3,7.1-0.1,7.1-7.2,7.1c-116.5,0-232.9,0-349.4,0.1c-3.4,0-4.3-0.8-4.2-4.2c0.3-7,0.1-7,7-7c57.9,0,115.7,0,173.6,0
		c58.7,0,117.5,0,176.2-0.1C435.6,424.8,436.3,425.7,436.2,428.9z"/>
	<path d="M224.3,189.1c10.2-0.1,20.4-0.1,30.7-0.1c10.2,0,20.4-0.1,30.7,0c2.2,0,3.3-0.3,3.2-3c-0.2-9.5-0.1-18.9,0-28.4
		c0-2.2-0.6-2.7-2.7-2.7c-20.7,0.1-41.4,0.1-62.1,0c-2.2,0-2.7,0.7-2.7,2.8c0.1,9.5,0.1,18.9,0,28.4
		C221.3,188.5,222,189.1,224.3,189.1z M241.2,166.3c11,0,21.9,0.1,32.9-0.1c3.1-0.1,3.7,1,3.6,3.8c-0.2,7.8,0,7.8-8,7.8
		c-5,0-10,0-14.9,0c-6.3,0-12.7-0.1-19,0c-2.1,0-3-0.3-3.1-2.8C232.5,166.3,232.4,166.3,241.2,166.3z"/>
	<path d="M116.4,153.9c-7.2,0.5-7.2,0.1-7.2,4.1c0,7.3,0,7.3,4.2,7.3c7,0,7,0,7-5.8C120.1,157.1,122,153.5,116.4,153.9z"/>
	<path d="M135.5,165.3c7.3,0,7.3,0,7.3-4.4c0-6.9,0-6.9-5.6-6.9c-2.5,0.3-6.1-1.6-5.7,4C131.9,165.2,131.5,165.3,135.5,165.3z"/>
	<path d="M165.4,365.7c-0.7,1.7-0.2,3.2,2.5,3.1c4.7-0.2,9.4-0.1,14.2-0.1c2.9,0,5.7,0,8.6,0c8.8,0,8.7,0,8.5-8.7
		c0-1.9-0.4-2.6-2.4-2.6c-9.7,0.1-19.4-0.4-29.1,0.2C162.4,358.1,166.5,363,165.4,365.7z"/>
	<path d="M314.1,368.8c4.8-0.1,9.7,0,14.6,0c2.9,0,5.7,0,8.6,0c8.7,0,8.6,0,8.4-8.8c0-2-0.7-2.4-2.5-2.4c-7.6,0.1-15.2,0-22.8,0
		c-9,0-8.9,0-8.6,9C311.8,368.4,312.4,368.8,314.1,368.8z"/>
	<path d="M231.4,98.7c7,0,7,0,7-5.4c0-5.8,0-5.8-4.3-5.8c-6.9,0-6.9,0-6.9,4.3C227.1,98.7,227.1,98.7,231.4,98.7z"/>
	<path d="M253.6,98.7c7.2,0,7.2,0,7.2-4.5c0-6.8,0-6.8-5.6-6.8c-2.7,0.2-6.2-1.5-5.8,4.1C250,98.7,249.5,98.7,253.6,98.7z"/>
	<path d="M277.6,98.7c2.6-0.3,6.2,1.5,5.8-4c-0.5-7.2-0.1-7.2-4.6-7.2c-6.8,0-6.8,0-6.8,4.4C272,98.7,272,98.7,277.6,98.7z"/>
</g>
</svg>
