<?xml version="1.0" encoding="utf-8"?>
<!-- Generator: Adobe Illustrator 28.2.0, SVG Export Plug-In . SVG Version: 6.00 Build 0)  -->
<svg version="1.1" id="Layer_1" xmlns="http://www.w3.org/2000/svg" xmlns:xlink="http://www.w3.org/1999/xlink" x="0px" y="0px"
	 viewBox="0 0 512 512" style="enable-background:new 0 0 512 512;" xml:space="preserve">
<style type="text/css">
	.st0{fill:none;}
</style>
<rect x="0" class="st0" width="512" height="512"/>
<g>
	<path d="M419.8,383.2c-1.7-0.7-2.1-1.4-2.3-3.2c-1-11.8-9.4-20.6-21.1-22.1c-2.3-0.3-2.7-0.9-2.7-3.1c0.1-35,0.1-70.1,0-105.1
		c0-2.2,0.8-3.4,2.4-4.6c5.8-4.3,11.6-8.6,17.4-13c5.8-4.3,5.7-8.1-0.1-12.3c-15.7-11.5-31.4-22.9-47.1-34.4
		c-1.6-1.1-2.6-2.2-2.6-4.5c0.1-20,0.1-39.9,0-59.9c0-1.8,0.3-2.8,2.2-3.4c2.8-0.9,3.8-3.3,3.8-6.2c0-7.5,0-15,0-22.4
		c0-4.4-2.3-6.7-6.7-6.7c-19.5,0-38.9,0-58.4,0c-4.4,0-6.7,2.3-6.7,6.7c-0.1,7.5,0,15,0,22.4c0,3.1,1.2,5.4,4.2,6.4
		c1.4,0.5,1.9,1,1.9,2.5c-0.1,6.2,0,12.4,0,19.3c-1.1-0.7-1.6-1-2.1-1.3c-13.7-10-27.4-19.9-41-30c-3.3-2.4-6.1-2.5-9.5-0.1
		c-51.1,37.4-102.2,74.7-153.2,112c-5,3.7-5,7.7-0.1,11.4c6.1,4.6,12.1,9.2,18.3,13.6c1.4,1,2.1,2.1,2.1,4
		c-0.1,35.3-0.1,70.6,0,105.9c0,1.8-0.4,2.4-2.4,2.6c-12.1,1.5-20.5,10.2-21.5,22.1c-0.1,1.7-0.6,2.5-2.3,3.2
		c-11.2,4.5-17.6,15.4-15.4,26.4c2.3,12.1,11.8,20,24.4,20c103.3,0,206.5,0,309.8,0c12.6,0,22-7.8,24.4-20
		C437.4,398.7,431,387.7,419.8,383.2z M319,94.4c12,0,23.9,0.1,35.9-0.1c2.3,0,3.1,0.5,2.9,2.9c-0.3,2.9,1.2,6.8-0.6,8.6
		c-1.8,1.8-5.7,0.5-8.6,0.5c-5,0.1-10,0-15,0c-7.1,0-14.2-0.1-21.3,0c-1.9,0-2.5-0.5-2.5-2.5C309.6,94.4,309.6,94.4,319,94.4z
		 M351.8,174.9c-11.9-8.7-23.1-16.9-34.4-25.1c-1.2-0.8-1.5-1.7-1.5-3.1c0.1-8.7,0.1-17.4,0-26.2c0-1.8,0.5-2.3,2.3-2.3
		c10.5,0.1,20.9,0.1,31.4,0c1.3,0,2.3-0.1,2.3,1.8C351.8,138.2,351.8,156.2,351.8,174.9z M118.3,393.7c0,7.1-0.1,14.2,0,21.3
		c0,2.1-0.5,2.8-2.7,2.7c-5.1-0.2-10.2,0-15.3-0.1c-6.9-0.1-12.1-5.5-12-12.2c0.1-6.5,5.3-11.5,12-11.7c5.8-0.2,7.8-3,6.5-8.9
		c-1.6-6.9,2.3-13.3,8.9-14.8c1.9-0.4,2.6-0.1,2.6,2.1C118.2,379.3,118.3,386.5,118.3,393.7z M342.4,417.7
		c-21.7-0.1-43.4-0.1-65.1,0c-2.9,0-3.4-0.8-3.4-3.5c0.1-41.6,0.1-83.3,0-124.9c0-2.9,0.8-3.4,3.5-3.4c21.7,0.1,43.4,0.1,65.1,0
		c2.9,0,3.4,0.8,3.4,3.5c-0.1,20.8-0.1,41.6-0.1,62.5s-0.1,41.6,0.1,62.5C345.9,417.2,345.1,417.7,342.4,417.7z M378.2,417.7
		c-5.4-0.2-10.7-0.3-16.1,0c-3.5,0.2-4.5-0.6-4.5-4.3c0.2-43.5,0.1-87,0.1-130.6c0-7.3-1.6-8.9-9-8.9c-26.2,0-52.4,0-78.6,0
		c-6.3,0-8.2,1.9-8.2,8.2c0,43.9,0,87.8,0.1,131.7c0,3.1-0.7,3.8-3.8,3.8c-41.4-0.1-82.8-0.1-124.2,0c-3.1,0-3.9-0.7-3.8-3.8
		c0.1-27.3,0.1-54.6,0.1-81.9c0-27.2,0-54.4,0-81.5c0-2.3,0.6-3.8,2.6-5.2c40.1-29.1,80.2-58.2,120.3-87.5c2.3-1.7,3.7-1.6,6,0
		c40,29.2,80.1,58.4,120.2,87.5c1.8,1.3,2.5,2.7,2.5,4.9c-0.1,54.7-0.1,109.5,0,164.2C381.8,417.4,380.8,417.8,378.2,417.7z
		 M384.9,234.6c-32.4-23.7-64.8-47.2-97.2-70.8c-8.7-6.3-17.3-12.6-26-18.9c-5.1-3.7-6.2-3.7-11.2,0
		c-40.8,29.7-81.6,59.3-122.3,89.1c-2.9,2.1-4.8,2.3-7.5-0.1c-3-2.7-6.5-5-10.2-7.7c16-11.7,31.6-23.1,47.1-34.5
		c31.9-23.3,63.8-46.5,95.6-69.9c2.1-1.6,3.4-1.7,5.7-0.1c46.5,34.1,93,68.1,139.6,102.1c2.5,1.8,3.3,2.8,0.1,4.7
		c-2.9,1.7-5.5,3.8-8.1,6C388.5,236.3,387.1,236.3,384.9,234.6z M412.2,417.6c-5.5,0.2-11,0-16.5,0.1c-2,0.1-2.1-0.8-2.1-2.4
		c0.1-7.2,0-14.5,0-21.7c0-7.1,0.1-14.2,0-21.3c0-2.2,0.6-2.8,2.8-2.2c6.3,1.6,10.3,7.9,8.9,14.3c-1.5,6.7,0.2,9.1,6.9,9.4
		c6.5,0.3,11.5,5.5,11.5,11.9C423.7,412,418.7,417.4,412.2,417.6z"/>
	<path d="M230.6,274c-22.9,0-45.9,0-68.8,0c-5.6,0-7.6,2.1-7.6,7.7c0,26.8,0,53.6,0,80.4c0,5.6,2,7.7,7.6,7.7c22.8,0,45.6,0,68.4,0
		c5.8,0,7.8-2,7.8-7.9c0-13.3,0-26.7,0-40c0-13.5,0-26.9,0-40.4C238,276.1,235.9,274,230.6,274z M168.5,285.9c6.5,0.1,13,0.1,19.4,0
		c1.8,0,2.3,0.5,2.3,2.3c-0.1,8.5-0.1,17,0,25.4c0,1.8-0.5,2.3-2.3,2.3c-6.5-0.1-13-0.1-19.4,0c-1.8,0-2.3-0.5-2.3-2.3
		c0.1-4.2,0-8.5,0-12.7s0.1-8.5,0-12.7C166.1,286.4,166.7,285.9,168.5,285.9z M187.9,357.8c-6.5-0.1-13-0.1-19.4,0
		c-1.8,0-2.3-0.5-2.3-2.3c0.1-4.2,0-8.5,0-12.7c0-4.2,0.1-8.5,0-12.7c-0.1-1.8,0.5-2.3,2.3-2.3c6.5,0.1,13,0.1,19.4,0
		c1.8,0,2.3,0.5,2.3,2.3c-0.1,8.5-0.1,17,0,25.4C190.2,357.3,189.7,357.8,187.9,357.8z M226.1,355.5c0,1.8-0.4,2.3-2.3,2.3
		c-6.5-0.1-13-0.1-19.4,0c-1.8,0-2.4-0.4-2.3-2.3c0.1-4.4,0-8.7,0-13.1c0-4.1,0.1-8.2,0-12.3c-0.1-1.8,0.4-2.3,2.3-2.3
		c6.5,0.1,13,0.1,19.4,0c1.8,0,2.3,0.4,2.3,2.3C226,338.5,226,347,226.1,355.5z M226.1,301.3c0,4.1-0.1,8.2,0,12.3
		c0.1,1.8-0.4,2.3-2.3,2.3c-6.5-0.1-13-0.1-19.4,0c-1.8,0-2.3-0.4-2.3-2.3c0.1-8.5,0.1-17,0-25.4c0-1.8,0.4-2.3,2.3-2.3
		c6.5,0.1,13,0.1,19.4,0c1.8,0,2.4,0.4,2.3,2.3C226,292.5,226.1,296.9,226.1,301.3z"/>
	<path d="M292.1,339.8c-3.2-0.1-6,2.4-6.2,5.7c-0.2,3.4,2.6,6.3,5.9,6.3c3.2,0,5.9-2.6,6-5.8C298,342.7,295.4,339.9,292.1,339.8z"/>
</g>
</svg>
