<?xml version="1.0" encoding="utf-8"?>
<!-- Generator: Adobe Illustrator 28.2.0, SVG Export Plug-In . SVG Version: 6.00 Build 0)  -->
<svg version="1.1" id="Layer_1" xmlns="http://www.w3.org/2000/svg" xmlns:xlink="http://www.w3.org/1999/xlink" x="0px" y="0px"
	 viewBox="0 0 512 512" style="enable-background:new 0 0 512 512;" xml:space="preserve">
<style type="text/css">
	.st0{opacity:0.93;fill:none;}
	.st1{opacity:0.93;}
</style>
<rect x="0" y="0" class="st0" width="512" height="512"/>
<g>
	<path class="st1" d="M429.3,178.2c-25.6,0-51.1,0-76.7,0.1c-2.7,0-3.5-0.5-3.5-3.4c0.2-15.1,0.1-30.2,0.1-45.3
		c0-6.4-0.6-7.3-6.6-8.9c-57-15.1-113.9-30.1-170.9-45.2c-6.6-1.7-8.8,0-8.9,6.7c0,13.6-0.1,27.2,0.1,40.8c0,2.7-0.5,3.5-3.4,3.5
		c-25.7-0.1-51.4-0.1-77.1-0.1c-6,0-7.5,1.5-7.5,7.4c0,28.8,0,57.6,0,86.4c0,0.9,0,1.8,0,2.6c0.3,2.7,1.7,4.4,4.5,4.7
		c2.9,0.3,4.8-1,5.6-3.8c0.3-1.3,0.3-2.7,0.3-4.1c0-26.6,0-53.1,0-79.7c0-1.8-0.3-3.2,2.6-3.2c24.1,0.1,48.1,0.1,72.2,0
		c2.1,0,2.7,0.6,2.7,2.7c-0.1,7.2-0.2,14.5,0,21.7c0.1,2.6-0.6,3.4-3.3,3.3c-13.3-0.1-26.7-0.1-40-0.1c-4.9,0-6.5,1.6-6.5,6.5
		c-0.1,7.9,0,15.7,0,23.6c0,6.6,1.2,7.9,7.9,7.9c13,0,25.9,0.1,38.9-0.1c2.5,0,3.1,0.7,3,3.1c-0.2,7.1-0.2,14.2,0,21.3
		c0.1,2.7-0.8,3.2-3.3,3.2c-13.2-0.1-26.4-0.1-39.6,0c-5.2,0-6.8,1.6-6.8,6.7c0,8.2,0,16.5,0,24.7c0,5.1,1.6,6.6,6.8,6.6
		c13.2,0,26.4,0.1,39.6-0.1c2.5,0,3.5,0.4,3.4,3.2c-0.2,7.1-0.2,14.2,0,21.3c0.1,2.6-0.6,3.3-3.3,3.3c-13.3-0.1-26.7-0.1-40-0.1
		c-4.8,0-6.5,1.7-6.5,6.5c-0.1,8.1,0,16.2,0,24.3c0,5.6,1.6,7.2,7.4,7.2c13.1,0,26.2,0.1,39.3-0.1c2.4,0,3.2,0.5,3.1,3
		c-0.2,7-0.2,14,0,20.9c0.1,2.9-0.6,3.8-3.6,3.7c-13.2-0.2-26.4-0.1-39.6-0.1c-4.9,0-6.5,1.6-6.5,6.5c-0.1,8.1,0,16.2,0,24.3
		c0,5.7,1.4,7,7.1,7c13,0,25.9,0.1,38.9,0c2.7,0,4,0.3,3.8,3.6c-0.3,7-0.2,14,0,20.9c0.1,2.7-0.7,3.3-3.3,3.2
		c-23.6-0.1-47.1-0.1-70.7,0c-2.7,0-3.5-0.6-3.5-3.4c0.1-18.6,0.1-37.2,0.1-55.7c0-2,0.1-4-0.1-6c-0.4-3.9-3.9-6.1-7.3-4.6
		c-2.7,1.2-3.1,3.6-3.1,6.2c0,22.1,0,44.1,0,66.2c0,6.3,1.3,7.5,7.7,7.5c57.7,0,115.5,0,173.2,0c57.9,0,115.7,0,173.6,0
		c6.6,0,7.8-1.2,7.8-7.8c0-81,0-162.1,0-243.1C437.2,179.6,435.8,178.2,429.3,178.2z M159.9,192.2c-5.7-0.1-11.5,0-17.2,0
		c-5.6,0-11.2-0.1-16.8,0c-2.1,0-2.9-0.6-2.8-2.7c0.1-4,0.1-8,0-12c0-1.8,0.4-2.7,2.4-2.7c11.6,0.1,23.2,0.1,34.8,0
		c1.8,0,2.3,0.5,2.3,2.3c-0.1,4.1-0.1,8.2,0,12.3C162.7,191.6,162,192.2,159.9,192.2z M159.8,257.7c-5.6-0.1-11.2,0-16.8,0
		c-5.6,0-11.2-0.1-16.8,0.1c-2.6,0.1-3.2-0.8-3.1-3.2c0.2-3.7,0.2-7.5,0-11.2c-0.1-2.2,0.5-3,2.9-3c11.3,0.1,22.7,0.1,34,0
		c1.9,0,2.7,0.4,2.6,2.4c-0.2,4.1-0.2,8.2,0,12.3C162.7,257.4,161.7,257.7,159.8,257.7z M162.6,320.9c0.1,2.1-0.7,2.4-2.6,2.4
		c-11.4-0.1-22.9-0.1-34.3,0c-2.2,0-2.7-0.8-2.6-2.8c0.1-3.9,0.2-7.7,0-11.6c-0.2-2.7,0.9-3,3.2-3c5.6,0.1,11.2,0,16.8,0
		c5.6,0,11.2,0.1,16.8,0c2,0,2.9,0.3,2.8,2.6C162.4,312.7,162.4,316.8,162.6,320.9z M159.9,388.9c-5.7-0.1-11.5,0-17.2,0
		c-5.5,0-11-0.1-16.4,0.1c-2.7,0.1-3.4-0.9-3.3-3.4c0.2-3.9,0.1-7.7,0-11.6c0-1.8,0.6-2.4,2.4-2.4c11.7,0.1,23.4,0.1,35.1,0
		c1.8,0,2,0.7,2,2.2c-0.1,4.2-0.1,8.5,0,12.7C162.7,388.6,161.8,389,159.9,388.9z M338.7,187c0,78.3,0,156.6,0,234.9
		c0,4.8,0,4.8-5,4.8c-52.1,0-104.2,0-156.4,0.1c-3.3,0-4.1-0.8-4.1-4.1c0.2-32.2,0.2-64.3,0.2-96.5c0-23.2,0-46.4,0-69.6
		c-0.1,0-0.1,0-0.2,0c0-40.8,0-81.5,0-122.3c0-14.7-0.1-29.4-0.3-44.1c-0.1-3.2,0.7-3.5,3.7-2.7c49.4,13.2,98.8,26.2,148.2,39.3
		c3.7,1,7.4,2.1,11.2,2.9c2.3,0.5,2.9,1.6,2.8,3.8C338.8,151.3,338.7,169.1,338.7,187z M423.2,426.8c-23.4-0.1-46.9-0.1-70.3,0
		c-3.1,0-3.5-1.1-3.5-3.8c0.1-38.5,0.1-77.1,0.1-115.6c0-38.4,0-76.8-0.1-115.2c0-2.8,0.6-3.7,3.6-3.7c23.4,0.1,46.9,0.1,70.3,0
		c3.1,0,3.5,1,3.5,3.8c-0.1,76.9-0.1,153.9,0,230.8C426.8,426,426.2,426.8,423.2,426.8z"/>
	<path class="st1" d="M74.9,325.5c0.1,3.1,1.9,4.9,4.8,5.2c3,0.2,5.2-1.6,5.4-4.6c0.3-5.5,0.3-11,0-16.4c-0.2-3-2.2-4.7-5.3-4.6
		c-3.1,0.2-4.7,2-4.8,5.1c-0.1,2.6,0,5.2,0,7.8C74.9,320.5,74.8,323,74.9,325.5z"/>
	<path class="st1" d="M79.7,253.7c-3,0.2-4.7,2-4.8,5.1c-0.1,2.5,0,5,0,7.4c0,2.6-0.1,5.2,0,7.8c0.1,2.9,1.9,4.6,4.6,4.9
		c3,0.3,5.3-1.4,5.5-4.4c0.3-5.4,0.3-10.9,0-16.3C84.9,255.3,82.8,253.5,79.7,253.7z"/>
	<path class="st1" d="M203.4,196.8c9.6,0.1,19.2,0.1,28.7,0c4.1,0,5.9-1.9,6-5.9c0.1-4.9,0-9.7,0-14.6c0-4.9,0-9.7,0-14.6
		c-0.1-4.1-1.8-6-5.8-6c-9.7-0.1-19.4-0.1-29.1,0c-4.1,0-6,1.8-6.1,5.9c-0.1,9.7-0.1,19.4,0,29.1
		C197.1,194.9,199.1,196.7,203.4,196.8z M207.4,168.2c0-1.6,0.5-2.2,2.1-2.1c5.5,0.1,11,0.1,16.4,0c1.5,0,1.9,0.6,1.9,2
		c-0.1,2.9,0,5.7,0,9.2c-0.4,2.6,1.5,6.8-0.7,8.6c-1.8,1.6-5.9,0.5-9,0.5c-2.9,0-5.7-0.1-8.6,0c-1.7,0.1-2.1-0.5-2.1-2.1
		C207.5,178.9,207.5,173.5,207.4,168.2z"/>
	<path class="st1" d="M280,196.8c9.6,0.1,19.2,0.1,28.7,0c4.2,0,6.2-1.9,6.2-6.2c0.1-9.6,0.1-19.2,0-28.8c0-4.3-1.9-6.1-6.2-6.2
		c-4.9-0.1-9.7,0-14.6,0c-4.7,0-9.5,0-14.2,0c-4.3,0-6.1,1.8-6.1,6.1c0,9.6,0,19.2,0,28.8C273.9,194.8,275.7,196.7,280,196.8z
		 M284.2,168.5c-0.1-2,0.6-2.6,2.5-2.5c2.5,0.2,5,0,7.5,0c0,0.1,0,0.2,0,0.2c3.3,0,7.9-1.3,9.7,0.3c2.2,2,0.6,6.6,0.7,10
		c0.1,3.1,1.1,7.2-0.5,9c-1.8,2.1-6.1,0.5-9.3,0.7c-2.5,0.1-5-0.1-7.5,0.1c-2.3,0.2-3.3-0.3-3.2-2.9
		C284.4,178.5,284.3,173.5,284.2,168.5z"/>
	<path class="st1" d="M238.1,225.4c0-3.4-1.8-5.4-5.3-5.4c-10.1-0.1-20.2,0-30.2,0c-3.5,0-5.4,2-5.5,5.3c-0.2,10.1-0.1,20.2,0,30.2
		c0,3.4,2,5.5,5.4,5.5c10.1,0.1,20.2,0.1,30.2,0c3.6,0,5.4-2.1,5.4-5.7c0.1-5,0-10,0-14.9S238.2,230.4,238.1,225.4z M227.2,250
		c-1.9,2.1-6.3,0.6-9.7,0.7c-3.2,0.1-7.5,1.1-9.4-0.5c-2.2-1.9-0.5-6.3-0.7-9.6c-0.1-2,0.2-4-0.1-6c-0.6-3.8,1-4.6,4.5-4.3
		c4.5,0.3,9,0.2,13.5,0c2-0.1,2.6,0.6,2.5,2.5c-0.2,2.6,0,5.2,0,7.9c-0.1,0-0.2,0-0.2,0C227.6,243.8,228.8,248.2,227.2,250z"/>
	<path class="st1" d="M279.7,261c9.7,0.1,19.4,0.1,29.1,0c4.2,0,6.1-2,6.1-6.3c0.1-9.5,0.1-18.9,0-28.4c0-4.6-1.8-6.3-6.3-6.4
		c-4.7,0-9.5,0-14.2,0c-4.9,0-9.7,0-14.6,0c-4.2,0-6,1.7-6,5.8c-0.1,9.7-0.1,19.4,0,29.1C273.9,259,275.7,261,279.7,261z
		 M284.2,232.3c-0.1-1.6,0.5-2.2,2.1-2.1c5.4,0.1,10.7,0.1,16.1,0c1.9,0,2.3,0.8,2.2,2.4c-0.1,2.6,0,5.2,0,7.9c-0.1,0-0.1,0-0.2,0
		c0,3.2,1.3,7.5-0.3,9.4c-1.9,2.2-6.3,0.7-9.6,0.7c-3.3,0-7.7,1.5-9.7-0.6c-1.6-1.8-0.5-6.2-0.6-9.4
		C284.2,237.8,284.3,235.1,284.2,232.3z"/>
	<path class="st1" d="M309.1,284.2c-9.8-0.1-19.7-0.1-29.5,0c-4,0-5.6,1.8-5.7,5.8c-0.1,4.7,0,9.5,0,14.2c0,5,0,10,0,15
		c0,4,1.7,5.9,5.5,6c10,0.1,19.9,0.1,29.9,0c3.6,0,5.5-2,5.6-5.7c0.1-9.8,0.1-19.7,0-29.6C314.9,286.1,313,284.2,309.1,284.2z
		 M304,314.3c-2,2.1-6.1,0.6-9.3,0.6c-3.3,0.1-7.8,1.1-9.7-0.6c-2.3-2-0.7-6.6-0.7-10c0-3.2-1.4-7.3,0.6-9.3c1.9-1.9,5.9-0.4,9-0.5
		c2.5-0.1,5,0.2,7.5-0.1c2.8-0.3,3.4,0.9,3.2,3.4c-0.2,2.4,0,4.7,0,7.7C304.3,308.1,306,312.2,304,314.3z"/>
	<path class="st1" d="M232,284.1c-4.7-0.1-9.5,0-14.2,0c-4.7,0-9.5,0-14.2,0c-4.6,0.1-6.4,1.8-6.5,6.3c-0.1,9.5-0.1,19,0,28.4
		c0,4.4,1.8,6.3,6.1,6.3c9.7,0.1,19.5,0.1,29.2,0c4.1,0,5.8-1.9,5.8-6.1c0-9.6,0-19.2,0-28.8C238.1,285.9,236.4,284.2,232,284.1z
		 M227.8,312.4c0.1,1.9-0.5,2.7-2.5,2.6c-2.6-0.2-5.2,0-8.4,0c-2.6-0.3-6.8,1.4-8.8-0.6c-2-2-0.6-6.1-0.6-9.3c0-3.4-1.6-8,0.7-10
		c2-1.7,6.4-0.7,9.7-0.6c3.2,0.1,7.4-1.4,9.3,0.7c1.6,1.8,0.5,5.9,0.6,9C227.8,306.9,227.7,309.6,227.8,312.4z"/>
	<path class="st1" d="M238.2,354.8c0-4.7-1.6-6.5-6.2-6.5c-9.6-0.1-19.2-0.1-28.8,0c-4.1,0-6,1.9-6.1,5.9c-0.1,9.7-0.1,19.5,0,29.2
		c0,4,1.9,5.9,6.1,5.9c9.7,0.1,19.5,0.1,29.2,0c4.1,0,5.8-1.9,5.8-6.1c0.1-4.7,0-9.5,0-14.2C238.2,364.3,238.2,359.6,238.2,354.8z
		 M227.2,378.4c-2,2.2-6.6,0.6-10,0.7c-3.1,0.1-7.2,1-9-0.6c-2.1-1.8-0.6-6-0.7-9.2c-0.1-2.6,0.1-5.2-0.1-7.8c-0.2-2.4,0.8-3,3-2.8
		c2.5,0.2,5,0,8,0c2.6,0.3,6.8-1.4,8.8,0.6c2,2,0.5,6.2,0.6,9.4C227.8,372,228.9,376.5,227.2,378.4z"/>
	<path class="st1" d="M309.1,348.3c-9.8-0.1-19.7-0.1-29.5,0c-4,0-5.7,1.9-5.7,5.8c-0.1,4.9,0,9.7,0,14.6c0,4.9,0,9.7,0,14.6
		c0,4.2,1.7,6,5.9,6c9.7,0.1,19.5,0.1,29.2,0c4.1,0,6-1.9,6-6c0.1-9.7,0.1-19.5,0-29.2C314.9,350.3,313,348.4,309.1,348.3z
		 M303.9,378.5c-2,1.9-6.2,0.4-9.4,0.5c-2.4,0.1-4.7-0.1-7.1,0c-2.3,0.1-3.4-0.3-3.2-3c0.2-5,0.1-10,0-14.9c0-1.9,0.5-2.7,2.5-2.6
		c2.6,0.2,5.2,0,8.4,0c2.6,0.3,6.8-1.4,8.8,0.6c2.1,2.1,0.6,6.4,0.6,9.7C304.5,372.2,306,376.4,303.9,378.5z"/>
	<path class="st1" d="M408.1,316.4c-6.6-0.1-13.2,0-19.8,0c-6.8,0-13.7,0-20.5,0c-3.8,0-5.7,1.7-5.7,5.3c-0.1,7.8-0.1,15.7,0,23.5
		c0.1,3.7,1.9,5.6,5.6,5.6c13.6,0.1,27.1,0.1,40.7,0c3.8,0,5.7-2,5.7-5.8c0.1-7.6,0.1-15.2,0-22.8
		C414,318.1,412.3,316.5,408.1,316.4z M403.1,339.9c-1.7,1.7-6.3,0.5-9.7,0.6c-1.9,0-3.7,0-5.6,0c-4.3,0-8.7-0.1-13,0
		c-1.9,0.1-2.7-0.4-2.6-2.5c0.2-2.8,0.2-5.7,0-8.6c-0.2-2.5,0.9-2.9,3-2.8c8.6,0.1,17.1,0.1,25.7,0c2.4,0,3.1,0.7,2.9,3
		C403.4,333.1,405.3,337.8,403.1,339.9z"/>
	<path class="st1" d="M408.1,368.2c-13.3,0-26.6,0-40,0c-4.3,0-6.1,1.7-6.1,6.1c-0.1,7.3-0.1,14.7,0,22c0,4.6,1.8,6.3,6.4,6.3
		c6.5,0,12.9,0,19.4,0c6.7,0,13.4,0,20.2,0c4.3,0,6.1-1.8,6.1-6.1c0.1-7.5,0.1-14.9,0-22.4C414,370,412.2,368.2,408.1,368.2z
		 M403.8,381.6c-0.2,2.7-0.2,5.5,0,8.2c0.1,2-0.7,2.5-2.6,2.4c-4.5-0.1-9,0-13.5,0c-4.4,0-8.7-0.1-13.1,0c-2,0.1-2.7-0.6-2.5-2.5
		c0.3-3.6-1.4-8.1,0.6-10.5c2-2.2,6.6-0.6,10-0.7c6-0.1,12,0.1,17.9-0.1C403.3,378.4,404,379.2,403.8,381.6z"/>
	<path class="st1" d="M368.9,247.3c6.3,0,12.7,0,19,0c6.7,0,13.4,0.1,20.2,0c4.2-0.1,5.9-1.8,5.9-6c0.1-7.5,0.1-14.9,0-22.4
		c0-4.3-1.9-6.1-6.2-6.1c-13.2-0.1-26.4-0.1-39.6,0c-4.5,0-6.3,1.9-6.3,6.4c-0.1,7.1,0,14.2,0,21.3
		C362,245.8,363.5,247.2,368.9,247.3z M382.9,223.1c6.1,0,12.2,0.1,18.3,0c1.9,0,2.7,0.4,2.6,2.5c-0.1,3-0.1,6,0,9
		c0.1,2-0.7,2.5-2.6,2.5c-4.4-0.1-8.7,0-13.1,0c-4.5,0-9-0.1-13.5,0c-1.7,0-2.3-0.5-2.4-2.3C371.4,223.1,371.4,223.1,382.9,223.1z"
		/>
	<path class="st1" d="M368.2,299.1c13.2,0.1,26.4,0.1,39.6,0c4.5,0,6.3-1.9,6.3-6.4c0-7.2,0-14.4,0-21.7c0-4.9-1.6-6.4-6.5-6.5
		c-6.5-0.1-12.9,0-19.4,0c-6.7,0-13.4-0.1-20.2,0c-4.2,0.1-5.9,1.8-6,5.9c-0.1,7.5-0.1,14.9,0,22.4
		C362,297.3,363.8,299.1,368.2,299.1z M372.8,275.6c2-2.3,6.6-0.6,10-0.7c6.1-0.1,12.2,0,18.3-0.1c1.9,0,2.7,0.5,2.6,2.5
		c-0.1,3-0.1,6,0,9c0.1,2.1-0.8,2.5-2.6,2.4c-4.4-0.1-8.7,0-13.1,0s-8.7-0.1-13.1,0c-2.1,0.1-3-0.5-2.8-2.7
		C372.5,282.6,370.8,278,372.8,275.6z"/>
</g>
</svg>
