<?xml version="1.0" encoding="utf-8"?>
<!-- Generator: Adobe Illustrator 28.2.0, SVG Export Plug-In . SVG Version: 6.00 Build 0)  -->
<svg version="1.1" id="Layer_1" xmlns="http://www.w3.org/2000/svg" xmlns:xlink="http://www.w3.org/1999/xlink" x="0px" y="0px"
	 viewBox="0 0 512 512" style="enable-background:new 0 0 512 512;" xml:space="preserve">
<style type="text/css">
	.st0{opacity:0.93;fill:none;}
</style>
<rect class="st0" width="512" height="512"/>
<g>
	<path d="M437.2,166.6c0-1.5-0.1-2.9-0.8-4.3c-9.8-21.2-19.7-42.4-29.4-63.6c-1.9-4.3-4.5-5.8-9.2-5.8c-94.5,0.1-189.1,0.1-283.6,0
		c-4.8,0-7.4,1.6-9.4,6c-9.6,21.2-19.4,42.2-29.2,63.3c-0.6,1.3-0.9,2.6-0.9,3.9c0,12.3-0.1,24.7,0.1,37c0.1,9.8,4.4,17.8,12.3,23.6
		c2.1,1.5,2.7,3.1,2.7,5.5c-0.1,59.5,0,119,0,178.5c0,7.3,1.1,8.4,8.4,8.4c52.5,0,105,0,157.5,0c0,0.1,0,0.2,0,0.3
		c11.3,0,22.7,0,34,0c41.5-0.1,83-0.2,124.6-0.3c0.9,0,1.8,0,2.6-0.1c2.7-0.3,4.3-1.9,4.5-4.6c0.1-1.4,0.1-2.7,0.1-4.1
		c0-59.2,0-118.5,0-177.7c0-1.8-0.3-3.5,1.8-4.8c9.5-6.4,13.9-15.5,13.8-27C437,189.3,437.2,177.9,437.2,166.6z M111,110
		c2.3-5.3,4.9-7.1,10.9-7.1c90.4,0.2,180.8,0.2,271.2,0.1c3.6,0,5.2,1.2,6.6,4.3c7.5,16.5,15.1,33,22.7,49.5
		c0.4,0.9,0.8,1.8,1.3,2.9c-111.9,0-223.4,0-335.5,0C96,143,103.8,126.7,111,110z M336.7,173.4c0-2.4,0.7-2.9,2.9-2.9
		c5.7,0.2,11.4,0.1,17.2,0.1c5.7,0,11.5,0.1,17.2,0c2,0,2.5,0.6,2.5,2.5c-0.1,10.2,0.1,20.4-0.1,30.6c-0.2,10.3-9.4,18.6-20,18.5
		c-10.7-0.1-19.5-8.6-19.6-19C336.7,193.3,336.9,183.3,336.7,173.4z M326.2,203c-0.2,10.9-9.4,19.4-20.3,19.2
		c-10.9-0.2-19.3-8.7-19.3-19.6c0-9.7,0.1-19.4-0.1-29.2c0-2.3,0.5-3,2.9-3c5.6,0.2,11.2,0.1,16.8,0.1c5.7,0,11.5,0.1,17.2,0
		c2,0,2.9,0.3,2.9,2.6C326.2,183.1,326.4,193.1,326.2,203z M275.8,203c-0.2,10.8-8.9,19.2-19.7,19.2c-10.9,0-19.6-8.4-19.8-19.1
		c-0.1-9.8,0.1-19.7-0.1-29.5c0-2.6,0.8-3.1,3.2-3.1c5.6,0.2,11.2,0,16.8,0c5.5,0,11,0.1,16.4,0c2.3-0.1,3.3,0.3,3.3,3
		C275.7,183.4,275.9,193.2,275.8,203z M225.4,202.9c-0.1,9.6-7.3,17.9-16.7,19.1c-10.4,1.3-19.8-4.8-22.3-14.5
		c-0.9-3.3-0.7-6.7-0.7-10c0-7.9,0.1-15.7-0.1-23.6c-0.1-2.9,0.9-3.6,3.6-3.5c5.5,0.2,11,0.1,16.5,0.1c5.6,0,11.2,0.2,16.8-0.1
		c2.8-0.1,3,1.1,2.9,3.3C225.4,183.5,225.5,193.2,225.4,202.9z M135.5,172.7c0-2,0.9-2.2,2.5-2.1c5.8,0.1,11.7,0,17.5,0
		c5.7,0,11.4,0.1,17.2,0c1.9,0,2.6,0.5,2.6,2.5c-0.1,10.5,0.1,20.9-0.1,31.4c-0.2,9.7-9.3,17.8-19.5,17.8
		c-10.3,0.1-19.6-7.9-20-17.8C135.2,193.8,135.6,183.3,135.5,172.7z M85.3,203.5c-0.3-10.1,0-20.2-0.2-30.3c0-2.2,0.7-2.8,2.8-2.7
		c5.7,0.1,11.5,0,17.2,0c5.7,0,11.5,0.1,17.2,0c2,0,2.8,0.3,2.8,2.6c-0.1,10,0.1,19.9-0.1,29.9c-0.2,10.7-9.1,19.2-19.8,19.2
		C94.5,222.3,85.6,214,85.3,203.5z M366.2,408.5c-23.4-0.2-46.9-0.1-70.3,0c-2.9,0-3.7-0.7-3.7-3.7c0.1-42.4,0.1-84.8,0-127.2
		c0-2.7,0.6-3.6,3.5-3.6c23.7,0.1,47.4,0.1,71.1,0c2.7,0,3.2,0.8,3.2,3.3c-0.1,21.4-0.1,42.9-0.1,64.3c0,20.9-0.1,41.9,0.1,62.8
		C369.9,407.5,369.5,408.5,366.2,408.5z M411.4,405.4c0,2.7-0.8,3.3-3.4,3.3c-8-0.1-16-0.3-23.9,0.1c-3.6,0.2-3.9-1.1-3.9-4.2
		c0.1-44.1,0.1-88.3,0.1-132.4c0-1.1,0.1-2.3,0-3.4c-0.3-3-1.9-4.8-5-4.9c-3.2-0.1-6.5-0.1-9.7-0.1c-25.3,0-50.6,0-75.9,0
		c-6.4,0-7.6,1.2-7.6,7.7c0,44.4,0,88.8,0.1,133.2c0,3.4-0.9,4.1-4.1,4.1c-58-0.1-116-0.1-174,0c-2.8,0-3.7-0.5-3.7-3.6
		c0.1-56.5,0.1-113,0-169.5c0-2.6,0.5-3.4,3.2-3.2c10.3,0.6,18.7-3.2,25.3-11.2c1.3-1.6,1.7-1.7,3.2-0.1c13.1,15.3,34,15.3,47.2,0.1
		c1-1.1,1.5-2.3,2.9-0.4c11.9,15.6,36.1,15.8,48.3-0.8c0.1-0.2,0.4-0.3,0.7-0.6c12.6,17,36.9,17.7,50.2-0.1
		c6.4,8.3,14.5,13.1,25.1,13.1c10.5,0,18.6-4.6,25.1-13.1c3.1,3.9,6.5,7.2,10.9,9.6c12.7,6.8,28.2,3.9,37.5-7.3
		c1.7-2.1,2.3-1.9,3.9,0c6.3,7.5,14.5,11.2,24.3,10.8c2.5-0.1,3.4,0.3,3.4,3.1C411.3,292.2,411.3,348.8,411.4,405.4z M426.7,202.5
		c-0.2,11.4-8.9,19.8-20,19.7c-11.1-0.1-19.7-8.8-19.7-20.1c-0.1-9.5,0.1-18.9-0.1-28.4c0-2.7,0.8-3.3,3.3-3.2
		c5.6,0.2,11.2,0.1,16.8,0.1c5.6,0,11.2,0.1,16.8,0c2.2-0.1,3,0.4,3,2.8C426.7,183.1,426.9,192.8,426.7,202.5z"/>
	<path d="M253.8,261c-41.7,0-83.3,0-125,0c-5.9,0-7.4,1.6-7.4,7.6c0,32.8,0,65.6,0,98.4c0,6.6,1.4,8,8.2,8c20.6,0,41.2,0,61.7,0
		c20.8,0,41.7,0,62.5,0c5.8,0,7.4-1.6,7.4-7.2c0-33.2,0-66.3,0-99.5C261.2,262.7,259.5,261,253.8,261z M247.1,364.8
		c-37.3-0.1-74.5-0.1-111.8,0c-2.9,0-3.7-0.8-3.7-3.7c0.1-28.8,0.1-57.6,0-86.4c0-2.9,0.9-3.4,3.5-3.4c18.7,0.1,37.4,0.1,56.1,0.1
		c18.7,0,37.4,0.1,56.1-0.1c2.8,0,3.5,0.6,3.5,3.4c-0.1,28.8-0.1,57.6,0,86.4C250.9,364.2,250,364.8,247.1,364.8z"/>
</g>
</svg>
