<?xml version="1.0" encoding="utf-8"?>
<!-- Generator: Adobe Illustrator 28.2.0, SVG Export Plug-In . SVG Version: 6.00 Build 0)  -->
<svg version="1.1" id="Layer_1" xmlns="http://www.w3.org/2000/svg" xmlns:xlink="http://www.w3.org/1999/xlink" x="0px" y="0px"
	 viewBox="0 0 512 512" style="enable-background:new 0 0 512 512;" xml:space="preserve">
<style type="text/css">
	.st0{opacity:0.93;fill:none;}
</style>
<rect class="st0" width="512" height="512"/>
<g>
	<path d="M430.8,437.3c-0.3-7.8-0.1-8-8-7.7c-3.5,0.1-4.2-1-4.2-4.3c0.1-101,0.1-202,0-303c0-3.5,0.9-4.3,4.3-4.2
		c5.8,0.3,7.8-1.9,7.8-7.8c0-6.9,0-13.7,0-20.6c0-5.3-2.1-7.4-7.5-7.4c-12.5,0-24.9,0-37.4,0c-9.1,0-9,0-9,9c0,2.5,0.7,3.1,3.1,3
		c10.3-0.1,20.7-0.1,31.1-0.1c7.8,0,7.6,0,7.9,7.9c0.1,3.5-0.9,4.2-4.3,4.2c-107.7-0.1-215.5-0.1-323.2-0.1c-7.8,0-7.6,0-7.9-7.9
		c-0.1-3.5,1-4.2,4.3-4.2c89.5,0.1,179.1,0.1,268.6,0.1c8.6,0,8.5,0,8.6-8.7c0.1-2.9-0.8-3.4-3.5-3.4c-32.5,0.1-65.1,0.1-97.6,0.1
		c-61.4,0-122.7,0-184.1,0c-6.3,0-8.2,1.9-8.2,8.3c0,6.6,0,13.2,0,19.8c0,5.8,2,8,7.8,7.7c3.4-0.2,4.2,0.8,4.2,4.2
		c-0.1,85.5-0.1,171.1-0.1,256.6c0,8.7,0,8.5,8.6,8.7c2.8,0.1,3.5-0.7,3.4-3.5c-0.1-23.7,0-47.4-0.1-71.1c0-2.3,0.1-3.4,3.1-3.4
		c101.8,0.1,203.5,0.1,305.3,0c2.5,0,3.1,0.7,3,3.1c-0.1,16.2-0.1,32.4-0.1,48.6c0,21.6-0.1,43.1,0.1,64.7c0,2.8-0.7,3.6-3.5,3.4
		c-3.6-0.3-7.3-0.3-10.8,0c-3.2,0.3-3.8-0.8-3.8-3.8c0.1-31.8,0.1-63.6,0.1-95.4c0-6.9-1.7-8.6-8.6-8.6c-56.1,0-112.2,0-168.4,0
		c-6.9,0-8.6,1.7-8.6,8.6c0,31.9,0,63.8,0,95.8c0,1.8,0.6,3.5-2.6,3.5c-34.2-0.1-68.3-0.1-102.5,0c-2.1,0-2.7-0.5-2.7-2.7
		c0.1-6.1,0.1-12.2,0.1-18.3c0-9.2,0-9.2-9.4-9c-2.1,0-2.7,0.6-2.7,2.7c0.1,7.9-0.1,15.7,0.1,23.6c0.1,3.1-0.7,3.9-3.8,3.8
		c-8.2-0.2-8.1-0.1-8.3,8.2c-0.1,3.2,0.8,3.8,3.9,3.8c58.5-0.1,117-0.1,175.5-0.1c58.6,0,117.2,0,175.8,0.1
		C430.1,441.6,430.9,440.7,430.8,437.3z M290,429.6c-23.9-0.1-47.9-0.1-71.8,0c-2.4,0-3.1-0.6-3.1-3.1c0.1-15,0.1-29.9,0.1-44.9
		s0.1-29.9-0.1-44.9c0-2.4,0.6-3.1,3.1-3.1c23.9,0.1,47.9,0.1,71.8,0c2.4,0,3.1,0.6,3.1,3.1c-0.1,29.9-0.1,59.9,0,89.8
		C293.1,429,292.5,429.6,290,429.6z M373.8,429.6c-21.9-0.1-43.9-0.1-65.8,0c-2.4,0-3.1-0.6-3.1-3.1c0.1-29.9,0.1-59.8,0-89.8
		c0-2.4,0.6-3.1,3.1-3.1c21.9,0.1,43.9,0.1,65.8,0c2.4,0,3.1,0.6,3.1,3.1c-0.1,15.1-0.1,30.2-0.1,45.3c0,14.8-0.1,29.7,0.1,44.5
		C376.9,429,376.3,429.6,373.8,429.6z M99.2,118.2c50.8,0.1,101.5,0.1,152.3,0.1c50.5,0,101,0,151.5-0.1c3.1,0,3.9,0.7,3.8,3.8
		c-0.1,49.4-0.1,98.8,0,148.1c0,3.1-0.7,3.9-3.8,3.8c-23.6-0.2-47.1-0.1-70.7,0c-2.8,0-3.5-0.6-3.4-3.4c0.1-43.9,0.1-87.8,0.1-131.7
		c0-6.9-1.7-8.6-8.6-8.6c-68.1,0-136.2,0-204.3,0c-6.9,0-8.6,1.7-8.6,8.5c0,43.8,0,87.5,0.1,131.3c0,3-0.6,4-3.8,3.9
		c-8.3-0.3-8.3-0.1-8.3-8.3c0-47.9,0-95.8-0.1-143.7C95.4,119,96,118.2,99.2,118.2z M317,222.6c0,2.8-0.6,3.5-3.4,3.5
		c-23.7-0.1-47.4-0.1-71.1,0c-2.8,0-3.5-0.6-3.4-3.4c0.1-20.1,0.1-40.2,0.1-60.2c0-6.4-1.8-8.2-8.2-8.2c-30.4,0-60.9,0-91.3,0
		c-6.4,0-8.3,1.8-8.3,8.2c0,35.9,0,71.8,0.1,107.7c0,3-0.6,4-3.8,3.9c-8.3-0.3-8.3-0.1-8.3-8.3c0-39.9,0-79.8-0.1-119.7
		c0-3.1,0.6-3.9,3.8-3.9c31.8,0.1,63.6,0.1,95.4,0.1c31.7,0,63.4,0,95-0.1c2.7,0,3.5,0.6,3.5,3.4C316.9,171.2,316.9,196.9,317,222.6
		z M299,255.6c0-5.1,0.1-10.2,0-15.3c0-1.8,0.5-2.3,2.3-2.3c4.5,0.1,9,0.1,13.5,0c1.8,0,2.3,0.5,2.3,2.3c-0.1,10.5-0.1,20.9,0,31.4
		c0,1.8-0.5,2.3-2.3,2.3c-4.5-0.1-9-0.1-13.5,0c-1.8,0-2.3-0.5-2.3-2.3C299.1,266.3,299,260.9,299,255.6z M269,240.2
		c0-1.8,0.5-2.3,2.3-2.3c4.5,0.1,9,0.1,13.5,0c1.8-0.1,2.3,0.5,2.3,2.3c-0.1,5.2,0,10.5,0,15.7c0,5.2-0.1,10.5,0,15.7
		c0,1.8-0.5,2.3-2.3,2.3c-4.5-0.1-9-0.1-13.5,0c-1.8,0.1-2.3-0.5-2.3-2.3C269.1,261.2,269.1,250.7,269,240.2z M257.1,271.6
		c0,1.8-0.5,2.3-2.3,2.3c-4.5-0.1-9-0.1-13.5,0c-1.8,0-2.3-0.5-2.3-2.3c0.1-5.2,0-10.5,0-15.7s0.1-10.5,0-15.7
		c0-1.8,0.5-2.3,2.3-2.3c4.5,0.1,9,0.1,13.5,0c1.8,0,2.3,0.5,2.3,2.3C257.1,250.7,257.1,261.2,257.1,271.6z M191.3,219.6
		c0-16.7,0.1-33.4-0.1-50.1c0-2.8,0.6-3.5,3.4-3.4c9.8,0.2,19.7,0.2,29.6,0c2.5,0,3.1,0.6,3,3.1c-0.1,33.9-0.1,67.8,0,101.7
		c0,2.4-0.6,3.1-3.1,3.1c-10-0.1-20-0.1-29.9,0c-2.5,0-3.1-0.6-3.1-3.1C191.3,253.8,191.3,236.7,191.3,219.6z M143.3,169.2
		c0-2.4,0.6-3.1,3.1-3.1c10,0.1,20,0.1,29.9,0c2.5,0,3.1,0.6,3.1,3.1c-0.1,17.1-0.1,34.2-0.1,51.2c0,16.7-0.1,33.4,0.1,50.1
		c0,2.8-0.6,3.5-3.4,3.4c-9.8-0.2-19.7-0.2-29.6,0c-2.5,0-3.1-0.6-3.1-3.1C143.4,237,143.4,203.1,143.3,169.2z M398.5,297.8
		c-99.6,0-199.3,0-298.9,0.1c-3.4,0-4.3-0.8-4.2-4.2c0.3-7.8,0.1-7.9,8-7.9c49.4,0,98.8,0,148.2,0c50.5,0,101,0,151.5-0.1
		c3.1,0,3.9,0.7,3.8,3.8C406.6,297.8,406.8,297.8,398.5,297.8z"/>
	<path d="M348.3,172.1c6.5,0,12.9,0,19.4,0c6.7,0,13.4,0.1,20.2,0c5.4-0.1,8.1-3.7,6.2-8.7c-3.7-9.7-7.7-19.4-11.5-29
		c-1.1-2.8-3.3-4.2-6.4-4.2c-5.5,0.1-11,0.1-16.4,0c-3.5-0.1-5.6,1.5-6.8,4.7c-3.7,9.3-7.5,18.6-11.2,28
		C339.6,168.4,342.2,172.1,348.3,172.1z M362.3,143.7c0.4-1.1,1-1.4,2.1-1.5c7.9-0.8,8-0.7,11,6.7c1.5,3.7,2.9,7.3,4.5,11.2
		c-8.1,0-15.9,0-24.1,0C358,154.5,360.2,149.1,362.3,143.7z"/>
	<path d="M277.9,381.6c-8.9,0-8.9,0-8.6,8.8c0,3-1.1,6.8,0.3,8.6c1.5,1.9,5.6,0.3,8.5,0.6c2.2,0.2,3.1-0.3,3-2.8
		c-0.2-4.1-0.3-8.2,0-12.3C281.3,381.9,280.2,381.6,277.9,381.6z"/>
	<path d="M326,381.6c-9,0.1-9,0-9,9c0,9.2,0,9.2,9.3,9.1c2,0,2.8-0.4,2.7-2.6c-0.2-4.1-0.2-8.2,0-12.3
		C329.1,382.4,328.6,381.5,326,381.6z"/>
	<path d="M212.3,232c8.9,0,8.9,0,8.9-8.7c0-9.6,0-9.5-9.4-9.3c-2.2,0-2.7,0.7-2.6,2.8c0.1,4.1,0.2,8.2,0,12.3
		C209,231.7,210,232.1,212.3,232z"/>
</g>
</svg>
