<?xml version="1.0" encoding="utf-8"?>
<!-- Generator: Adobe Illustrator 28.2.0, SVG Export Plug-In . SVG Version: 6.00 Build 0)  -->
<svg version="1.1" id="Layer_1" xmlns="http://www.w3.org/2000/svg" xmlns:xlink="http://www.w3.org/1999/xlink" x="0px" y="0px"
	 viewBox="0 0 512 512" style="enable-background:new 0 0 512 512;" xml:space="preserve">
<g>
	<path d="M442.6,425.3c-1.1-0.2-2.3-0.4-3.3-0.2c-3,0.4-3.7-0.8-3.7-3.7c0.1-19,0.1-37.9,0.1-56.9c0-1.2,0-2.5-0.2-3.7
		c-0.5-3.2-2.6-4.9-5.7-4.8c-2.9,0.1-4.8,1.8-5.2,4.9c-0.2,1.2-0.1,2.5-0.1,3.7c0,19.1,0,38.2,0,57.2c0,2.3-0.4,3.3-3,3.3
		c-52.4-0.1-104.7-0.1-157.1,0c-2.5,0-3.1-0.8-3.1-3.2c0.1-40.6,0.1-81.3,0-121.9c0-2.7,0.8-3.2,3.3-3.2c52.1,0.1,104.2,0.1,156.4,0
		c3.2,0,3.6,1.1,3.6,3.8c-0.1,9.1-0.1,18.2-0.1,27.3c0,3.2-0.1,6.5,0.1,9.7c0.2,3.2,2.2,5,5.4,5c3.2,0,5.1-1.7,5.6-4.9
		c0.2-1.1,0.1-2.2,0.1-3.4c0-10.8,0.2-21.7-0.1-32.5c-0.1-3.9,0.6-5.4,4.9-5.1c5.7,0.3,8.2-3.8,5.7-8.9c-7.4-15.1-15-30-22.5-45
		c-1.2-2.5-3.2-3.7-6-3.6c-4.6,0.1-9.2-0.1-13.8,0.1c-2.4,0.1-3.2-0.5-3.1-3c0.2-6.7,0.1-13.5,0.1-20.2c0-18.5,0.1-36.9-0.1-55.4
		c0-2.6,0.7-3.4,3.3-3.2c3.9,0.2,7.7,0.1,11.6,0.1c7.9,0,10.1-3.6,6.6-10.7c-6.9-13.8-13.9-27.5-20.6-41.4c-2-4.2-4.7-5.8-9.3-5.8
		c-24.9,0.2-49.9,0.1-74.8,0.1c-6,0-8.7,1.8-8.6,5.8c0.1,3.9,2.6,5.5,8.5,5.5c23.6,0,47.1,0.1,70.7-0.1c2.8,0,4.2,0.9,5.3,3.4
		c3.7,7.9,7.7,15.6,11.6,23.4c1.4,2.7,2.7,5.5,4.1,8.4c-0.8,0.1-1.1,0.2-1.4,0.2c-47.4,0-94.8,0-142.1,0.1c-1.8,0-3-0.7-4.2-1.9
		c-10.4-10.4-20.8-20.8-31.2-31.2c-0.5-0.5-1.6-0.9-1.1-2.2c19.3,0,38.6,0,57.9,0c1.5,0,3,0,4.4-0.3c2.8-0.7,4.1-2.7,3.9-5.6
		c-0.1-2.7-1.6-4.5-4.2-5c-1.4-0.3-3-0.3-4.5-0.3c-22.2,0-44.4,0-66.6,0c-2.4,0-4.2-0.7-5.9-2.4c-4.8-5-9.8-9.9-14.8-14.8
		c-8.3-8.1-18.1-8.1-26.4,0c-11.3,11.1-22.5,22.2-33.8,33.4c-15.5,15.4-31,30.7-46.5,46.1c-5.1,5-7.6,10.8-5.9,17.9
		c2.5,10.6,11.3,14.9,23.4,11.7c0,17.6,0,35.3,0,53.3c-1-0.6-1.7-1.1-2.4-1.5c-15.3-9.3-35.9-2.2-42.1,14.6
		c-0.6,1.7-1.2,3.5-1.7,5.2c0,26.7,0,53.4,0,80.1c0.9,4,1.5,8,4.1,11.4c3.9,5.1,8.5,9.1,14.6,11.2c2.1,0.7,3.4,1.7,3.4,4.2
		c0,16.7,0,33.4,0,50.1c0,2.6-1.1,3.6-3.6,3.5c-3.6,0-7.2-0.1-10.8,0.1c-3.4,0.2-6.4,1.1-7.7,4.8c0,1.5,0,3,0,4.5
		c2.1,2.8,5,3.4,8.4,3.4c122.1-0.1,244.1-0.1,366.2-0.1c1.2,0,2.5,0,3.7-0.2c3.1-0.4,4.6-2.4,4.7-5.4
		C447.2,427.8,445.6,425.8,442.6,425.3z M275.5,157.4c1.1,0,2.2,0,3.3,0c35.7,0,71.3,0,107-0.1c3,0,4,0.6,3.9,3.8
		c-0.3,8.3-0.1,8.3-8.4,8.3c-25.6,0-51.1,0-76.7,0c-6.4,0-8,1.5-8,7.8c0,14.1,0,28.2,0,42.3c0,5.8,1.8,7.6,7.5,7.6
		c27.3,0,54.6,0,81.9-0.1c2.7,0,3.6,0.4,3.5,3.4c-0.2,8.7,0,8.7-8.7,8.7c-38.5,0-77.1-0.1-115.6,0.1c-3.6,0-4.2-1.1-4.2-4.3
		c0.2-13.5,0.1-26.9,0-40.4c0-2.6,0.2-3.3,3.2-2.7c7.5,1.6,14.7-2.2,18.4-9.1c3.7-6.9,2.7-14-2.9-19.9c-1.5-1.6-3.3-3-4.9-4.5
		C275.1,158,275.3,157.7,275.5,157.4z M307.8,183.5c0-2.3,0.6-2.9,2.9-2.9c12.6,0.1,25.2,0.1,37.8,0.1c12.7,0,25.4,0.1,38.1-0.1
		c2.5,0,3.1,0.7,3,3.1c-0.1,9.7-0.1,19.4,0,29.2c0,2.4-0.6,3.1-3.1,3.1c-25.2-0.1-50.3-0.1-75.5,0c-2.7,0-3.3-0.8-3.2-3.3
		C307.9,202.9,307.9,193.2,307.8,183.5z M75.4,337.5c-0.1-23-0.1-46.1,0-69.1c0-9.5,5.8-16.2,14.9-17.7c8.1-1.4,16.3,3.3,19.1,11
		c0.9,2.5,1.2,5.1,1.2,7.7c0,11.2,0,22.4,0,33.6c0,11.5,0.1,22.9,0,34.4c-0.1,10.3-7.6,17.9-17.5,18
		C83.1,355.3,75.4,347.7,75.4,337.5z M108,425.1c-9.5,0.2-9.5,0.3-9.5-9c0-15.5,0-30.9,0-46.4c0-2.4,0.1-4.2,3.2-4.7
		c3-0.5,5.6-2.4,8.8-4.3c0,21.1,0,41.5,0.1,61.9C110.6,424.8,109.8,425.1,108,425.1z M108.5,179.3c-2.9,2.4-6.6,2.1-9-0.6
		c-2.3-2.6-2.1-5.4,0.7-8.3c11.2-11.2,22.5-22.3,33.7-33.4c15.6-15.4,31.2-30.9,46.8-46.3c4.1-4,7.1-4.1,11.2,0
		c26.3,26.3,52.5,52.5,78.8,78.8c1.8,1.8,3.4,3.7,3.4,6.4c-0.1,4.7-4.8,7.3-8.8,4.9c-1.5-0.9-2.7-2.2-4-3.4c-23-23-46-46-69-69
		c-5-5-7-5-12-0.1c-23.1,22.9-46.3,45.8-69.4,68.7C110.1,177.7,109.4,178.6,108.5,179.3z M246.2,425.1c-5.5-0.3-11-0.3-16.5,0
		c-3,0.2-3.4-0.9-3.4-3.5c0.1-34.8,0.1-69.6,0.1-104.4c0-6.8-1.6-8.4-8.3-8.4c-6.2,0-12.5,0-18.7,0c-4.5,0-6.8,2.1-6.7,5.7
		c0,3.7,2.2,5.5,6.9,5.5c3.9,0,7.8,0.3,11.6-0.1c3.6-0.4,4.1,1.1,4.1,4.3c-0.1,31.2-0.1,62.3-0.1,93.5c0,7.3,0,7.3-7.4,7.3
		c-16,0-31.9-0.1-47.9,0.1c-2.7,0-3.3-0.7-3.2-3.3c0.1-32.8,0.1-65.6,0-98.4c0-2.8,0.7-3.6,3.5-3.5c4.3,0.3,8.7,0.1,13.1,0
		c3.6-0.1,5.9-2.2,6-5.3c0.2-3.3-2.2-5.8-5.9-5.9c-7.4-0.1-14.7-0.1-22.1,0c-4,0.1-5.8,2.4-5.8,7.1c0,20.3,0,40.7,0,61
		c0,15-0.1,29.9,0.1,44.9c0,2.6-0.7,3.4-3.3,3.3c-5.6-0.2-11.2-0.2-16.8,0c-2.9,0.1-3.7-0.6-3.7-3.6c0.1-25.4,0.1-50.9,0.1-76.3
		c0-14,0-27.9,0-41.9c0-39.3,0-78.6,0-117.8c0-2.4,0.6-4.1,2.4-5.8c19.9-19.6,39.8-39.2,59.5-58.9c2-2,3.1-2.1,5.2,0
		c19.6,19.7,39.3,39.4,59,59c1.6,1.6,2.3,3.2,2.3,5.5c-0.1,78.7-0.1,157.4,0,236.1C250.1,424.4,249.3,425.3,246.2,425.1z M261.2,253
		c0-2.1,0.5-2.7,2.6-2.7c49.6,0.1,99.2,0.1,148.8,0c1.3,0,2.3,0.1,3,1.5c5.5,11.1,11,22.2,16.8,33.7c-26.7,0-52.8,0-78.8,0
		c-29.7,0-59.3,0-89,0.1c-2.8,0-3.5-0.6-3.5-3.4C261.4,272.5,261.3,262.8,261.2,253z"/>
	<path d="M281.9,308.8c-6.4,0-8.2,1.7-8.2,8.2c0,21.6,0,43.1,0,64.7c0,6.5,1.6,8,8.2,8.1c18.4,0,36.9,0,55.3,0c18.6,0,37.1,0,55.7,0
		c6.1,0,7.8-1.7,7.8-7.7c0-21.7,0-43.4,0-65c0-6.5-1.7-8.2-8.2-8.2C355.7,308.8,318.8,308.8,281.9,308.8z M328.8,378.6
		c-13.7-0.1-27.4-0.1-41.1,0c-2.4,0-2.8-0.8-2.8-3c0.1-17.6,0.1-35.1,0-52.7c0-2.3,0.6-2.9,2.9-2.9c13.7,0.1,27.4,0.1,41.1,0
		c2.4,0,2.9,0.8,2.8,3c-0.1,8.8,0,17.7,0,26.5c0,8.7-0.1,17.4,0.1,26.1C331.8,378,331.1,378.6,328.8,378.6z M386.5,378.6
		c-13.6-0.1-27.1-0.1-40.7,0c-2.3,0-2.9-0.6-2.9-2.9c0.1-8.8,0.1-17.7,0.1-26.5c0-8.7,0.1-17.4-0.1-26.1c0-2.5,0.8-3.1,3.2-3
		c13.6,0.1,27.1,0.1,40.7,0c2.4,0,2.9,0.7,2.9,2.9c-0.1,17.6-0.1,35.1,0,52.7C389.6,378.1,388.8,378.6,386.5,378.6z"/>
	<path d="M219.4,215.9c-22.3,0-44.6,0-66.9,0c-5.1,0-6.9,1.9-6.9,7c0,22.3,0,44.6,0,66.9c0,5.1,1.9,6.9,7,6.9c11.1,0,22.2,0,33.3,0
		c11.2,0,22.4,0,33.6,0c5,0,7-1.9,7-7c0-22.3,0-44.6,0-66.9C226.4,217.8,224.5,215.9,219.4,215.9z M159.5,227.1
		c3.1,0.2,6.2,0.1,9.3,0.1c3.1,0,6.2,0.1,9.3,0c2.2-0.1,2.7,0.7,2.6,2.8c-0.1,6.1-0.1,12.2,0,18.3c0,1.9-0.4,2.6-2.5,2.6
		c-6.4-0.1-12.7-0.1-19.1,0c-2.3,0.1-2.6-0.8-2.6-2.8c0.1-6,0.1-12,0-17.9C156.6,227.8,157.1,226.9,159.5,227.1z M180.8,283.5
		c0,1.6-0.5,2.2-2.1,2.1c-3.4-0.1-6.7,0-10.1,0c-3.1,0-6.2-0.1-9.3,0c-1.9,0.1-2.6-0.4-2.5-2.4c0.1-6.2,0.1-12.5,0-18.7
		c0-1.9,0.5-2.6,2.5-2.6c6.4,0.1,12.7,0.1,19.1,0c1.9,0,2.6,0.5,2.6,2.5C180.7,270.8,180.7,277.1,180.8,283.5z M194.3,227.1
		c6.2,0.1,12.5,0.1,18.7,0c1.9,0,2.3,0.6,2.2,2.4c-0.1,3.1,0,6.2,0,9.3c0,3.1-0.1,6.2,0,9.3c0.1,1.8-0.3,2.7-2.4,2.6
		c-6.2-0.1-12.5-0.1-18.7,0c-1.9,0-2.2-0.7-2.2-2.4c0.1-6.4,0.1-12.7,0-19.1C191.9,227.4,192.6,227.1,194.3,227.1z M214.5,285
		c-2.1,1.9-7.1,0.6-10.8,0.6c-3.8-0.1-8.9,1.6-11.1-0.7c-1.9-2-0.5-7.1-0.6-10.8c0-3,0.1-6,0-9c-0.1-2.3,0.3-3.3,3-3.2
		c5.8,0.2,11.7,0.1,17.6,0c2.1,0,2.9,0.5,2.8,2.7c-0.2,3.1,0,6.2,0,10C214.9,277.7,216.9,282.8,214.5,285z"/>
	<path d="M186.4,203.9c15.6,0,28.7-13,28.8-28.4c0.1-16.6-12.4-29.2-28.9-29.1c-16.4,0-28.7,12.4-28.7,28.9
		C157.5,190.9,170.6,203.9,186.4,203.9z M186.2,157.5c9.8-0.1,17.8,7.7,17.8,17.3c0,10-7.7,17.8-17.6,17.9
		c-9.9,0-17.4-7.5-17.6-17.5C168.7,165.4,176.4,157.5,186.2,157.5z"/>
	<path d="M180.2,372.1c-0.3-3-2-4.8-5-5c-3-0.2-5.2,1.2-5.7,4.2c-0.7,4.2-0.7,8.4,0,12.6c0.5,3,2.6,4.4,5.7,4.3
		c3-0.2,4.8-1.8,5.1-4.9c0.2-1.7,0-3.5,0-5.2c0,0,0,0,0,0C180.2,376.1,180.3,374.1,180.2,372.1z"/>
</g>
</svg>
